<svg viewBox="0 0 179.69 147.95" xmlns="http://www.w3.org/2000/svg" xmlns:xlink="http://www.w3.org/1999/xlink"><linearGradient id="a" gradientUnits="userSpaceOnUse" x1=".07" x2="179.69" y1="77.48" y2="77.48"><stop offset="0"/><stop offset="1"/></linearGradient><linearGradient id="b" x1="38.35" x2="128.78" xlink:href="#a" y1="62" y2="62"/><linearGradient id="c" x1="0" x2="175.36" xlink:href="#a" y1="44.2" y2="44.2"/><linearGradient id="d" gradientTransform="matrix(.97325912 .22971002 -.22971002 .97325912 12.270013 -30.950087)" x1="127.22" x2="166.72" xlink:href="#a" y1="18.31" y2="18.31"/><path d="m179.69 66.89c0 42.36-49.31 80.6-91.44 81.05-52.76.57-88.18-21.28-88.18-57.84s51.01-83.1 87.57-83.1c44.36 0 90.42 34.63 92.05 59.89z" fill="url(#a)"/><path d="m162.17 65.67c-2 50.91-42.32 79.73-84 79.73s-75.61-25.68-75.61-60 41.02-81 82.67-78.4c33.45 2.09 78.32 24.39 76.94 58.67z" fill="#fff"/><path d="m157.58 63.08c-1.94 47.22-40.22 74-79.88 74s-71.84-23.86-71.84-55.68 39-75.15 78.6-72.73c31.78 1.94 74.42 22.62 73.12 54.41z" fill="#39c"/><circle cx="83.66" cy="65.01" fill="#0b6082" r="54.09"/><circle cx="83.56" cy="62" fill="url(#b)" r="45.21"/><path d="m0 88.4s16.7-82.22 102.89-77.4c55.92 3.13 72.47 14.31 72.47 14.31s-53.29-33.87-110.05-23.25c-62.18 11.63-65.31 86.34-65.31 86.34z" fill="url(#c)"/><path d="m132.48 13.56c27.94 11.2 35.91 19.84 35.91 19.84a182.28 182.28 0 0 0 -32.77-25.14z" fill="url(#d)"/><circle cx="128.86" cy="54.65" fill="#fff" r="16.05"/></svg>