<svg viewBox="0 0 374.02 386.93" xmlns="http://www.w3.org/2000/svg"><circle cx="186.4" cy="200.49" fill="#683d09" r="181.41"/><path d="m166.76 89.4.17-.07zm154.07-12.82c4.95 8.23 1.62 31.55 1.62 31.55 1.75-9.77-34.45-46.63-34.45-46.63 14.43 52.18-9 55.6-9 55.6-.63-15.84-21.42-35.21-21.42-35.21.84 21-2.58 18.18-12.7 35.46a169.81 169.81 0 0 0 -5.65-26.52c.58 6.92-7.47 25-12.69 35.9-13.2-21 .12-41.43.12-41.43-24.24 18-26.59 45.55-26.81 50.87 1.67-56.17-24.85-65.63-24.85-65.63 10 14.09-10.09 44.46-10.09 44.46-7.44-20.46.59-25 1.85-25.55-8.2 3.23-17.15 18.31-20.87 34.33 3.9-30-14.52-61.91-14.52-61.91 3.35 12.7-11.37 42.56-11.37 42.56-15.2-12-8.24-36.74-8.24-36.74-5.7 7-16.93 26.56-17.48 41.55-8.79-5.43-8.28-38.86-8.28-38.86-21.5 18.56-15 32.45-19.34 39.8-3.43-9.63-14.06-14.18-16.58-26.18-21.63 22.48-31.76 40.28-39.6 71.5 8.25 21.06 98.5 84 216.57 58 68.16-15 114.37-19.19 133.64-45.93a36 36 0 0 0 4-7.22 181.46 181.46 0 0 0 -43.86-83.77z" fill="#332007"/><path d="m369 199.92a183.07 183.07 0 0 0 -2.34-29.15c-2.93 1-4.84-.45-1.74-9.25a180.29 180.29 0 0 0 -10.72-33.62c-2.14 12.63-17.07 22.6-26.71 35a147.37 147.37 0 0 0 -9.76-26.78c.47 11.67-14 38.58-14 31.53 0-14.09-16.85-27.24-16.85-27.24s0 15.84-5.84 31c-7.58 19.75-14.63 26.23-15.34 31.25.28-11 .44-42.53-6.31-55.17 0 0 0 36.9-8.24 42.94 0 0-15.68-29.71-12.25-42.46 0 0-17.5 20.24-15.33 48.44-1.45-16.28-1.68-42.12-21.17-50.93 0 0 6.49 15.82-1.75 38 0 0-16.21-8.86-7.13-34.83 0 0-26.17 6.92-24.82 62.63-.31-9.68-1.41-34.2-25.75-51.87 0 0 12 22.55-1.56 43.51-5.34-10.9-13.57-29-13-35.9a165.36 165.36 0 0 0 -5.79 26.52c-8.84-8.79-19.22-20.82-18.57-36.66a26.85 26.85 0 0 0 -14.26 22.8s-25.82-10.64-16.21-46.87c0 0-25.64 10.74-23.87 31.57-.93-6-5.42-25.31-25.85-45.17q-1.49 3-2.87 6.06a45 45 0 0 1 -1.22 21.48c-1.69 5.34-6 10.61-10.74 15.12a182 182 0 1 0 360 38zm-145.11.08-.17-1.53z" fill="#683d09"/><path d="m356.65 260.5s-7-5.73-11.63-20c-5.81-17.84 5.62-36.79 5.62-36.79-23.07 8.33-40.29 67.09-40.29 67.09 14.84-49-8.48-63.74-8.48-63.74 9.89 36.23-42.41 90.57-42.41 90.57 12-26.16 0-65.07 0-65.07.89 21.05-13.25 48.18-23.91 65.47a161.85 161.85 0 0 0 -6-26.53c.6 6.92-7.87 25-13.37 35.9-13.91-20.95.12-61.43.12-61.43-25 17.67-27.9 60.12-28.23 69.8 1.4-55.71-26.19-84.56-26.19-84.56 10.6 14.09-10.6 64.41-10.6 64.41-8.48-22.14 2.12-45.62 2.12-45.62-8.69 3.09-18.21 38.27-22.16 54.4 4.11-30-15.3-81.91-15.3-81.91 3.54 12.75-12.72 72.46-12.72 72.46-8.48-6-8.48-42.94-8.48-42.94-7 12.64-6.78 44.18-6.49 55.18-.73-5-3.69-15.4-14.71-33.71-17-28.18-7.78-59-7.78-59-17 12.75-10.6 41.6-10.6 55.69 0 7.05-3.71 14.77-7.43 20.72-5.1-13.89-13.5-38.58-13.01-50.24 0 0-10.56 29.09-4.22 52.21a182.22 182.22 0 0 0 190.77 85.84c28.44-7.53 50.94-17.6 68.72-28.7a182.71 182.71 0 0 0 63.92-77.39 68 68 0 0 0 2.74-12.11z" fill="#332007"/><path d="m187 381.93a181.25 181.25 0 0 0 115.56-41.39c-17.4-14.05-11.67-50.54-11.67-50.54-16.15 8.75-20.19 50.47-20.19 50.47 1.3-12.08-6.7-36.31-6.7-36.31.67 22.21-24.23 51.82-24.23 51.82 9.39-28.98-8.77-51.15-8.77-51.15 5.39 29.61-27.59 46.44-27.59 46.44-8.74-14.13 4-33 4-33-13.46.68-28.09 34.62-28.09 34.62 4.85-38.8-22.86-63.05-22.86-63.05 11.78 38.8-9 57.51-9 57.51-13.16-15.24-17.32-29.1-13.16-40.88-20.1 12.47-22.87 50.58-22.87 50.58.69-14.55-17.32-35.34-17.32-35.34 1.67 11.15.57 29 .15 34.82a181.09 181.09 0 0 0 92.74 25.4z" fill="#683d09"/><circle cx="187.01" cy="199.92" fill="none" r="182.01" stroke="#281603" stroke-miterlimit="10" stroke-width="10"/><path d="m217.62 50.34s4.7-32.87 24.15-48.3c0 0-9.39 28.18 15.43 45.62 0 0 10.74-24.82 8.05-34.89a45.22 45.22 0 0 1 6.75 35.56s14.72-49.65 37.53-48.33c0 0-19.45 39.58 6 79.16l-30.83-22.66-16.65 7.77zm-82.52-5.34c-18.79-6.71-14.76-38.92-14.76-38.92-9.34 5.35-14.09 40.92-14.09 40.92-15.43-8.05-6-40.93-6-40.93-21.51 10.73-25.53 62.39-25.53 62.39 0-20.8-24.82-41.6-24.82-41.6 13.41 38.24 5 60.73 5 60.73z" fill="#683d09"/></svg>