<svg xmlns="http://www.w3.org/2000/svg" viewBox="0 0 21.965 21.174">
    <defs/>
    <path fill="#585b6a" d="M4.735 4.726a.313.313 0 00.308-.323 7.191 7.191 0 01.019-1.313A3.039 3.039 0 017.198.477 6.86 6.86 0 019.071.198c1.346-.04 2.693-.022 4.039 0a5.043 5.043 0 011.213.14c1.653.435 2.412 1.452 2.577 3.38.018.2.043.4.069.61a.313.313 0 00.311.274c.968 0 1.879-.012 2.856-.023a1.6 1.6 0 011.755 1.411 20.541 20.541 0 01.07 2.15q.009 5.716 0 11.43c0 1.045-.433 1.471-1.485 1.48q-7.125.057-14.251.118c-1.472.011-2.944.02-4.415-.009-1.343-.026-1.689-.822-1.7-1.943-.032-3.139-.047-6.273-.067-9.408C.03 8.601-.034 7.392.025 6.189c.041-.832.418-1.483 1.476-1.455.987.026 1.976 0 2.963-.008zm16.063 15.423a.312.312 0 00.284-.311v-.361l-.016-11.619c0-.58.012-1.16-.007-1.74-.011-.32-.07-.63-.511-.625q-6.647.057-13.295.1c-1.928.012-3.856.019-5.784.01-.4 0-.572.114-.568.53.02 1.677.018 3.354.03 5.031.019 2.695.057 5.389.057 8.084 0 .9.149 1.1 1.032 1.111h.329c1.8-.029 3.6-.069 5.4-.085q6.324-.057 12.647-.1c.129.003.255-.011.402-.025zM15.843 4.642a.313.313 0 00.308-.337 6.29 6.29 0 00-.081-.691c-.269-1.4-.442-2.381-2.632-2.53a47.286 47.286 0 00-5.161-.028 2.182 2.182 0 00-2.182 1.5 8.565 8.565 0 00-.22 1.781.313.313 0 00.312.337h.542a.312.312 0 00.314-.297c.012-.264.023-.515.052-.764a2.169 2.169 0 012.21-2c1.1-.012 2.193-.02 3.29 0a1.728 1.728 0 011.764 1.216c.157.468.191.977.31 1.461.032.131.161.328.26.341a8.229 8.229 0 00.915.016zm-2.433.013a.313.313 0 00.313-.308c0-.29.01-.545-.007-.8-.045-.649-.368-1.058-1-1.07a52.67 52.67 0 00-3.934.08.938.938 0 00-.665.515 6.672 6.672 0 00-.274 1.218.313.313 0 00.308.365z"/>
    <path fill="#ff807c" d="M21.084 19.844a.305.305 0 01-.278.3 5.23 5.23 0 01-.408.026q-6.323.051-12.647.1c-1.8.016-3.6.057-5.4.085h-.329C1.139 20.34.99 20.14.99 19.244c0-2.695-.039-5.389-.057-8.084-.012-1.677-.01-3.354-.03-5.031-.005-.416.17-.532.568-.53 1.93.01 3.856 0 5.784-.01q6.648-.044 13.295-.1c.443 0 .5.307.511.625.019.579.007 1.159.007 1.74l.02 11.617c-.004.123-.004.242-.004.373zm-7.59-4.431h3.174c.4 0 .685-.124.687-.575.007-1.234.01-2.469 0-3.7a.46.46 0 00-.53-.511c-.72.009-1.442 0-2.163 0h-1.17v-3.02c0-.53-.091-.642-.61-.642q-1.9 0-3.807.036c-.48.008-.589.161-.584.634.011.984 0 1.97 0 2.971-.166.009-.289.019-.412.022-.954.024-1.909.037-2.863.074-.4.016-.547.231-.537.653a96.058 96.058 0 010 3.52c-.005.388.216.5.527.508.485.016.971.009 1.457.009h1.791c0 .889.01 1.7 0 2.513-.01.649.123.805.775.807 1.1 0 2.193-.006 3.29 0 .795 0 .971-.154.975-.948v-2.347z"/>
    <path fill="#585b6a" stroke="#585b6a" stroke-miterlimit="10" stroke-width="2" d="M16.177 4.639c-.446 0-.852.023-1.249-.016-.1-.01-.227-.207-.26-.341-.119-.484-.153-.992-.31-1.461a1.729 1.729 0 00-1.764-1.213c-1.1-.016-2.193-.008-3.29 0a2.17 2.17 0 00-2.21 2c-.039.341-.044.685-.067 1.062H5.845a12.114 12.114 0 01.25-2.118 2.182 2.182 0 012.182-1.5 47.286 47.286 0 015.161.026c2.19.149 2.363 1.131 2.632 2.53.057.309.065.627.107 1.031z"/>
    <path fill="#ff807c" stroke="#ff807c" stroke-miterlimit="10" stroke-width="2" d="M13.495 15.417v2.351c0 .795-.178.952-.975.948-1.1-.007-2.193 0-3.29 0-.652 0-.785-.158-.775-.807.014-.812 0-1.625 0-2.513H6.667c-.486 0-.972.007-1.457-.009-.311-.011-.532-.12-.527-.508.017-1.174.03-2.348 0-3.52-.01-.422.141-.637.537-.653.954-.037 1.909-.05 2.863-.074.123 0 .246-.013.412-.022 0-1 .007-1.987 0-2.97-.005-.472.1-.625.584-.634q1.9-.032 3.807-.036c.519 0 .61.114.61.642v3.022h1.165c.721 0 1.442.008 2.163 0a.461.461 0 01.53.511c.008 1.235.005 2.47 0 3.7 0 .45-.284.577-.687.575-1.03-.007-2.06-.003-3.172-.003zM9.35 17.84h3.342v-3.325h3.807v-3.033h-3.9V7.83H9.337v3.729h-3.8v2.568c0 .284.124.418.433.4.454-.021.908 0 1.363 0h2.013z"/>
    <path fill="#fff" d="M9.347 17.84v-3.313H7.338c-.454 0-.908-.018-1.363 0-.308.014-.433-.118-.433-.4v-2.568h3.8V7.83h3.265v3.65h3.894v3.033h-3.807v3.325z"/>
</svg>
