<svg viewBox="0 0 99.163 92.466" xmlns="http://www.w3.org/2000/svg"><path d="m37.338 35.99s-4.11 8.783-2.517 18.253 4.454 28.353 4.454 28.353-5.376-.385-6.318 2.752c-.514 1.713 1.032 3.263 1.032 3.263h11.02l-.372-16.12s4.81 7.853 5.663 11.769-5.073 1.957-5.663 5.438 4.455 2.657 4.455 2.657a34.243 34.243 0 0 0 5.106.051c3.336-.16 3.482-8.38 6.308-7.492s-1.6 3.045 1.81 5.221l13.063.018s10.122-.469 11.168-5.788-4.965-19.245-2.016-22.29 17.087-5.655 14.259-14.139-8.048-4.145-8.7-6.672-4.35-1.452-3.915 0 .564 5.585 6.526 5.367c3.7-.593 2.869 4.162 1 5.561 0 0-13.834 4.61-13.833 8.878 0 0-14.436-23.112-16.25-25.079a50.48 50.48 0 0 0 -4.095-3.871s5.105-12.176 3.807-17.1c0 0 6.748-6.782 5.009-10.75 0 0-9.4-.848-12.1 4.335 0 0-8.4-3.082-12.1-1.263 0 0-2.7-6.981-7.96-7.337-2.587 4.415-.891 13.288-.891 13.288s-2.654 7.118-3.826 10.64c-1.464 4.397 5.876 12.057 5.876 12.057z" fill="#282827"/><path d="m37.338 35.99s-4.11 8.783-2.517 18.253 9.817 18.249 9.817 18.249a84.318 84.318 0 0 0 5.125-32.974c-.159-2.671 7.067-8.323-.713-16.485-.364-.382-2.165-2.62-2.393-3.739-.682-3.356.539-7.462-.876-7.738-.754-.147-3.753 6.909-4.66 7.393-5.433 2.9-6.452 4.19-7.885 5.888-2.45 2.9-1.68 2.526-.637 5.684s4.739 5.469 4.739 5.469z" fill="#d8d8d8"/><g stroke-linecap="round" stroke-linejoin="round" stroke-miterlimit="10"><path d="m46.657 19.293s-3.655-1.6-5.536-.345c0 .339 2.171 5.114 2.171 5.114z" fill="#edc9c2" stroke="#000"/><path d="m43.186 24.372s-3.916 5.153-8.831 3.7" fill="none" stroke="#000"/><path d="m52.15 30.032c-7.508-.393-8.859-5.969-8.859-5.969-.38 1.792-4.96 3.882-4.96 3.882s3.828 5.479 8.325.455" fill="#edc9c2" stroke="#000"/><path d="m40.255 26.928.866 1.4.1-2.014m3.581.465v1.551l.752-.776m-5.299-4.997s-9.658-7.412-16.351-2.732m12.993 3.198s-13.977-2.745-16.536 1.852m18.41-.503s-14.867 1.711-14.867 6.149m24.017-7.479s19.1-.506 19.489 3.737m-18.702-1.877s10.433-.339 10.827 1.415m-9.234.462s12.975 3.688 13.565 7" fill="none" stroke="#000"/><path d="m64.97 84.294a19 19 0 0 1 4.75-.923c1.969 0-10.224-9.315-5.377-16.889s8.785-3.484 8.785-3.484m-16.599-5.692a34.943 34.943 0 0 0 0 12.622l2.114 12.622m-9.935-66.561s3.88-3.12 6.525 1.356m-18.922-2.414s3.173-3.906 6.1 0m-4.079-5.717s1.8-1.936 3.8-1.909m16.512 1.914s4.283 1.474 4.55 3.976" fill="none" stroke="#d8d8d8"/></g><path d="m21.393 30.523s2.61 10.415 7.236 12.925c0-.002-8.605-1.214-7.236-12.925zm-5.703-2.193s-.912 16.256 10.722 20.591c-.001 0-16.425-3.085-10.722-20.591z"/><path d="m11.355 22.21s-13.454 24.885 12.549 34.01c0 0-19.168-12.13-12.549-34.01z"/><path d="m6.484 11.556s-22.912 40.961 17.423 53.768c-.003-.002-30.232-14.121-17.423-53.768z"/></svg>