<svg viewBox="0 0 86.035 94.61" xmlns="http://www.w3.org/2000/svg"><g transform="translate(-107.34 -108.109)"><path d="m111.982 120.666c-1.38-.059-.337-2.51 1.224-4.285 1.526-1.734 4.162-.735 4.162 1.1s-1.469 9.059-1.469 9.059 4.652-1.1 5.019-.735 1.207 1.731-.979 2.2c-1.949.421-5.386 1.959-5.632 0s2.3-9.363 1.347-10.283c-1.758-1.697-2.103 3.011-3.672 2.944z" fill="#f57f7c"/><path d="m119.248 117.682c-.389.8 2.022 2.25 2.022 2.25s-1.367 4.407 0 4.53 1.586-3.719 1.586-3.719 2.494 1.655 2.739.675-1.856-2.587-1.856-2.587 1.126-3.041.146-3.347-1.738 2.477-1.738 2.477-2.359-1.394-2.899-.279zm5.469-6.197c1.128.95 1.748-2.188 2.813-1.545 1.727 1.042-.045 8.1.738 9.136.836 1.1 4.8-.747 4.652-1.591-.348-2-3.061.122-3.061.122s.777-8.207-1.609-9.332c-1.93-.912-4.726 2.204-3.533 3.21zm3.441 49.543c-.384 0-3.3.185-6.751.341-.048-2.723-2.141-10.033-6.5-9.73 0 0 4.632 2.338 5.76 9.763-5.357.23-11.62.358-11.693-.374-.125-1.246 10.291-17.355 9.591-20.179 0 0-11.709 19.058-11.211 21.175.252 1.072 6.092.831 11.91.74 5.673-.088 11.326 0 11.757-.74.873-1.494-1.867-.996-2.863-.996z" fill="#f57f7c"/><path d="m123.549 148.572a1.468 1.468 0 0 0 -2.158-1.246s-1.953.872-.831 2.491 3.322 1.028 2.989-1.245zm-2.282.785c-.529-.763.392-1.174.392-1.174a.692.692 0 0 1 1.017.587c.157 1.072-.881 1.351-1.409.587zm50.705-22.266c.328.328 1.368 6.347 2.79 6.347s.656-10.833 1.641-11.052 14.772.573 14.772-.8c0-.294-1.222-.2-2.973-.269-3.858-.143-10.162-.121-10.76-.138-.571-.017-2.189-.11-2.462.656s-.485 10.154-.485 10.154-.51-1.538-.952-2.791c-.532-1.507-.9-3.185-1.463-3.1-2.114.334-2.987.4-2.954.961s2.513-.297 2.846.032z" fill="#f57f7c"/><path d="m181.838 124.016c.754-.037-2.707.017-2.707.673s-.32 4.476.541 4.231c1.169-.331 3.641-.51 3.672.693.055 2.165-2.736 1.806-3.556 1.86s-.985 1.149-.055 1.149 4.979-.219 4.87-2.954-4.487-1.933-4.487-1.933v-2.719s3.844 0 3.775-.766c-.034-.418-2.803-.202-2.053-.234z" fill="#f57f7c"/><path d="m137.075 125.513a17.075 17.075 0 0 0 -2.719 9.288c.258 4.911-3.889 2.585-1.428 7.755s12.363 8.338 25.194 1.292c8.217-4.512 6.935-12.027 6.935-12.027s4.894-7.357 4.068-14.8c-5.7-1.049-12.923 5.209-12.923 5.209s-7.113-2.635-10.215-2.271c-1.9-2.7-2.6-5.151-7.612-7.016-2.119 3.999-3.11 10.544-1.3 12.57z" fill="#c9c9c9"/><path d="m140.297 145.658s-1.809 6.2-2.585 8.789-1.034 4.653 0 12.925 3.619 24.557 3.619 24.557-6.418 1.737-6.024 4.064 8.319 1.891 10.646 1.374.506-15.1.506-15.1 7.943 11.213 4.38 13.281-5.151 1.753-5.943 5.519c-.423 2.008 11.927 2.574 12.792-.529s1.855-4.757 4.44-4.757-1.181 3.732 7.411 4.161c3.786.189 8.2-1.509 11.724-1.73 5.074-.317 7.191-7.919 5.92-13.32-2.338-9.937-10.439-23.106-3.975-27.6 5.946-4.136 12.149-17.836 9.565-22.489s-3.877 0-3.877 0 .216 9.961-4.287 14.146-8.264 7.434-8.38 9.884c-.283 5.971.641 7.8.641 7.8s-12.288-23.856-18.566-23.856c-11.081-.002-18.007 2.881-18.007 2.881z" fill="#c9c9c9"/><g stroke-linecap="round" stroke-linejoin="round" stroke-miterlimit="10"><path d="m141.126 137.998s-4.5-1.916-4.5-.417a14.523 14.523 0 0 0 1.083 4.083s4.583-1.499 3.417-3.666z" fill="#11100f" stroke="#000"/><path d="m134.399 144.638c3.439 2.807 3.311-2.973 3.311-2.973s2.833 7.992 8.749 3.833" fill="none" stroke="#000"/><path d="m164.332 197.152s-1.556-2.766 2.362-3.158 6.674-.688 7.718-.818-13.538-13.913-7.009-19.4 9.466 0 9.466 0" fill="none" stroke="#a4a5a5"/><path d="m145.718 132.733s3.875-3.781 6.652 1.386a4.31 4.31 0 0 1 -6.652-1.386zm-10.84-2.299a2.611 2.611 0 0 1 2.9-.711c1.512.7 1.23 1.671 1.23 1.671s-2.764 2.14-4.13-.96z" fill="#e2e2e2" stroke="#000"/><ellipse cx="149.091" cy="133.745" fill="none" rx="5.399" ry="5.591" stroke="#f57f7c"/><ellipse cx="3.753" cy="5.234" fill="none" rx="3.753" ry="5.234" stroke="#f57f7c" transform="matrix(.96204672 .27288477 -.27288477 .96204672 133.10814 124.737936)"/><path d="m138.9 131.816s3.267-.679 4.792 1.621" fill="none" stroke="#f57f7c"/><path d="m149.283 182.267s-5.374-11.2-5.229-13.591a3.162 3.162 0 0 0 -1.6 2.667s-1.666-9.489.511-11.521c0 0-2.906 1.379-3.414 2.395 0 0-.8-5.37 2.758-7.91" fill="none" stroke="#a4a5a5"/></g><path d="m149.41 131.923s-1.526.164-.838 2.421c-.001.003 2.106-.647.838-2.421zm-12.674-.299s1.328-.41.528-1.526c0 0-.962.1-.528 1.526" fill="#11100f"/><path d="m143.692 140.85s12.784.463 15.336 8.614m-14.648-7.159s8.694 2.906 8.694 7.159m-10.632-6.804s6.611 3.828 6.6 8.647m-14.643-11.971s-11.345-4.827-13.575-1.426" fill="none" stroke="#a4a5a5" stroke-linecap="round" stroke-linejoin="round" stroke-miterlimit="10"/><path d="m134.878 140.849s-7.391-4.286-9.588-.671m9.588 2.127s-9.163-.147-9.588 4.392m41.567-27.281s-8.45 2.082-8.739 4.57m-19.093-8.503s4.255 5.819 3.418 6.219a23.315 23.315 0 0 0 -2.964 2.285" fill="none" stroke="#a4a5a5" stroke-linecap="round" stroke-linejoin="round" stroke-miterlimit="10"/></g></svg>