<svg viewBox="0 0 133.082 100.159" xmlns="http://www.w3.org/2000/svg"><path d="m50.168 9.831s-8.44-5.3-6.029-7.475 6.029 1.688 6.029 1.688 1.688-5.064 4.1-3.858-4.1 9.645-4.1 9.645zm56.366 13.675c1.808-2.259 4.34 3.135 4.34 3.135s1.929-4.582 3.858-3.135-4.1 7.716-4.1 7.716-6.027-5.304-4.098-7.716zm-29.082 1.916s6.029-6.27 3.135-7.716-4.1 3.858-4.1 3.858-2.17-6.029-5.305-2.894 6.27 6.752 6.27 6.752zm-70.592 32.998s6.752-6.993 3.858-9.4-3.858 2.17-3.858 2.17-4.34-3.858-6.511-1.206 6.511 8.436 6.511 8.436z" fill="#d19a93"/><path d="m75.958 92.769c0-2.079-12.788-41.716-12.788-41.716s-23.83-11.619-30.583-3.04c0 0-2.194 11.081-9.96 15.317s-19.077 9.3-16.544 24.494 15.407 11.142 19.1 11.817 12.06.882 12.012-.572c-.031-.918.792-3.411-.476-5.165 3.589.811 3.632 2.088 7.18 4.049 3.467 2.626 13.3 1.129 13.883 0 1.689-3.273-3.139-8.979.422-9.669 5.162-1 17.754 5.714 17.754 4.485z" fill="#9f6532"/><path d="m55.768 58.809c7.814-10.112 9.193-10.8 9.193-10.8s-.46-13.79 1.839-15.4 11.032 9.883 11.032 16.778c0 0 11.143 1.379 11.2 8.274h10.634s8.5-5.746 16.318-2.068a23.863 23.863 0 0 1 7.991 6.526s5.57-.78 3.5-9.744-9.76-21.6-3.5-26.2 11.315 0 8.1 2.068-7.354-.305-6.665 4.214 7.512 16.2 7.663 21.527c.218 7.651-2.826 8.331-7.428 10.486 4.222 6.789 5.447 16.586-4.372 27.667a2.144 2.144 0 0 1 1.609 3.218c-1.149 2.758-14.25.23-17.467 2.068s-7.354 2.528-8.734 0c0 0-1.839-1.609-10.342-.23s-15.743 1.839-16.261-1.379 2.241-6.665 2.241-6.665-7.125-5.286-9.653-6.895-14.712-13.332-6.898-23.445z" fill="#4a4a4a"/><g stroke="#050505"><path d="m76.152 64.984c-3.116 5.583-9.348 1.818-9.348 1.818s6.362 5.972-2.467 8.309" fill="#4a4a4a" stroke-linecap="round" stroke-linejoin="round" stroke-miterlimit="10"/><path d="m65.636 62.257 1.169 4.544-4.414-.909s.908-3.505 3.245-3.635z" fill="#ff807c" stroke-linecap="round" stroke-linejoin="round" stroke-miterlimit="10"/><path d="m71.219 52.78s-5.972.13-4.414 5.583m-6.363 5.063s-5.583-1.3-4.284 5.583m14.087-6.752s1.623-9.867 7.984-10.127m-6.231 11.199s7.66-10.938 13.892-6.135m-22.721 15.19s-7.27 10.387-1.428 18.436m.129-20.773a14.015 14.015 0 0 0 -8.18 13.373m28.954-9.348s-2.193 5.493-1.934 14.451l7.776-.949s-15.823 1.43-17.521 3.775-.89 3.755-.89 3.755m8.151-2.336s-4.544 0-4.544 2.337m41.432-39.131s10.5 5.634 12.054 13.034m-58.286-31.548s3.505 5.453 3.116 8.569m31.539 44.13s-9.175 1.283-7.647 6.9m6.56-4.291a4.273 4.273 0 0 0 -2.822 5.143" fill="#4a4a4a" stroke-linecap="round" stroke-linejoin="round" stroke-miterlimit="10"/></g><path d="m33.261 35.151s-4.22-7.682-2.363-12.2c0 0 7.6 3.666 8.1 8.27 0 0 6.922-3.162 12.324-1.136 0 0 2.443-6.838 6.877-7.133 0 0 .462 8.146 0 10.509 0 0 8.235 10.6 4.966 15.362s-14.955 11.142-25.976 5.4-12.2-9.112-3.928-19.072z" fill="#9f6532"/><path d="m34.774 43.52a8.82 8.82 0 0 0 6.064 4.492c8.15 2.015 7.107-6.684 7.107-6.684s3.285 13.411 12.5 2.9m-22.429-7.953a4.893 4.893 0 0 1 5.877 0m6.788-.349s3.141-3.248 6.687.349" fill="none" stroke="#3f1d06" stroke-linecap="round" stroke-linejoin="round" stroke-miterlimit="10"/><path d="m45.109 38.758s3.242-1.925 5.573 0l-2.149 4.325z" fill="#efc9c2" stroke="#3f1d06" stroke-linecap="round" stroke-linejoin="round" stroke-miterlimit="10"/><path d="m40.955 41.327s-16.27-3.559-20.631 3.526m22.284-.032s-12-.3-14.743 5.664m28.949-9.157s15.6-3.149 19.144 3.526m-22.771-1.202s13.795 1.853 14.966 5.67m-45.212 23.062s10.358 3.931 7.7 13.136c-1.3 4.507-6.39 5.3-6.39 5.3s8.8.485 10.987 3.116m-6.149 1.169s3.156 1.665 2.866 3.963m17.299-5.132s5.1-.839 3.933 3.15m-14.094-41.991s4.065 2.155 10.941.475 8.8-2.792 8.8-2.792m-26.861-26.444 3.263 3.86m20.916-4.602s-2.441 3.86-2.127 4.6" fill="none" stroke="#3f1d06" stroke-linecap="round" stroke-linejoin="round" stroke-miterlimit="10"/></svg>