<svg viewBox="0 0 103.788 77.917" xmlns="http://www.w3.org/2000/svg"><g transform="translate(-98.932 -191.969)"><path d="m174.356 256.938c2.12-1.732 3.416-6.41 1.525-11.6-5.117-14.044-23.874-16.561-29.777-15.105 0 0-24.113 4.366-26.1 16.492-1.663 10.126 14.029 12.906 26.671 13.548 1.286 1.638 4.642 5.614 7.208 6 3.241.49 4.078-.49 4.4-1.962.2-.951-.951-2.311-1.222-3.9 2.216-.048 4.429-.159 6.533-.392 1.465 1.812 4.508 5.229 6.877 5.588 3.241.49 4.078-.49 4.4-1.962s-3.226-4.493-.515-6.707z" fill="#ddb79b"/><path d="m126.274 256.326s.793-7.5 4.264-13.349c3.976-6.7 10.956-11.9 15.565-12.746 8.634-1.582 27.416 11.32 28.1 16.492s-2.977 11.959 2.591 12.131 27.7-2.564 25.809-18.483-4.274-35.328-22.577-37.733-16.424-11.133-35.723-10.649c-11.633.291-31.253 11.619-30.395 26.562s-17.4 19.6-14.707 29.948c2.887 11.071 20.476 9.983 27.073 7.827z" fill="#f57f7c"/><path d="m146.341 226.735s-2.85 12.252 10.732 22.163c8.632 6.3 15.4-.233 15.4-.233s13.3-10.5 7.932-21.929c0 0 10.2 3.134 10.965 2.8 0 0-3.266-11.665-16.331-10.5 0 0-9.8-6.532-23.1-.082 0 0-13.531-3.651-16.1 9.88.004.001 7.375-.848 10.502-2.099z" fill="#ddb79b"/><path d="m168.801 239.192s-4.2-2.46-7.382 0l3.691 4.716z" fill="#ce895b" stroke="#000" stroke-linecap="round" stroke-linejoin="round" stroke-miterlimit="10"/><path d="m155.24 243.912s4.818 5.331 9.945 0c0 0 4.483 5.058 9.022 0" fill="none" stroke="#000" stroke-linecap="round" stroke-linejoin="round" stroke-miterlimit="10"/><path d="m149.666 231.426s4.971 5.242 11.025 0c.001 0-5.241-6.781-11.025 0z" fill="#fff" stroke="#000" stroke-linecap="round" stroke-linejoin="round" stroke-miterlimit="10"/><ellipse cx="154.737" cy="230.23" rx="2.52" ry="1.582"/><path d="m167.56 231.426s4.971 5.242 11.025 0c0 0-5.241-6.781-11.025 0z" fill="#fff" stroke="#000" stroke-linecap="round" stroke-linejoin="round" stroke-miterlimit="10"/><ellipse cx="172.631" cy="230.23" rx="2.52" ry="1.582"/><g stroke-linecap="round" stroke-linejoin="round" stroke-miterlimit="10"><path d="m158.354 240.032s-16.591-4.817-21.274 2.275m23.612.67s-13.978.535-16.386 7.492" fill="none" stroke="#000"/><path d="m154.737 241.003s-10.164-.435-11.636 1.974m28.231-2.606s10.7-4.821 17.393.631m-15.652.973s13.245-1.685 18.73 1.933m-23.002-.931s16.713.8 18.052 3.746" fill="none" stroke="#000"/><path d="m152.499 247.233a26.406 26.406 0 0 0 11.612 4.4c6.408.611 8.962-3.484 8.962-3.484m-20.574 14.081s2.68.7 2.239 2.721m.94-3.343s1.76 1.633 1.58 3.343m11.543-3.732s2.868 1.4 2.531 3.732m.597-4.276s2.177 1.711 1.633 3.966" fill="none" stroke="#ce895b"/><path d="m129.011 232.518s-14.435 3.9-12.014 15.707" fill="none" stroke="#000"/><path d="m125.793 237.879s-6.31 1.819-3.385 9.51m64.444-32.337s6.679 2.529 6.679 8.18" fill="none" stroke="#000"/><path d="m180.029 210.59s15.031-4.986 19.473 11.637m-73.087 38.448s8.924 5.647 16.687 3.966m-12.327 1.76s10.054 4.656 17.563 2.319" fill="none" stroke="#000"/></g></g></svg>