<svg viewBox="0 0 86.288 94.329" xmlns="http://www.w3.org/2000/svg"><g transform="translate(-126.756 -86.973)"><path d="m150.108 158.371c-4.6 11.023-2.93 15.628 0 18s30.724 5.3 29.8-3.628-2.342-13.695-6.76-18.7c-2.815-3.19-18.435-6.695-23.04 4.328z" fill="#d8d6d6"/><path d="m174.444 142.565s1.723 19.3 1.67 22.226 16.492 13.815 21.127 12.559 16.077-8.681 15.8-28.272-16.653-21.641-17.024-22.349c-.29-.554 4.281 9.159-7.256 15.875-3.199 1.861-7.48-.174-14.317-.039z" fill="#b9e4d3"/><path d="m158.096 127.782s7.909 17.136 20.563 17.136c9.268 0 17.056-6.435 17.988-13.5.341-2.582-3.056-5.249-3.621-7.718 0 0 3.3-1.186 1.186-8.172s-5.536-6.591-5.536-6.591-3.032 1.845-.264 9.227c0 0-4.637-6.875-11.2-7.777-10.116-1.393-23.27 4.447-19.116 17.395z" fill="#edc9c2"/><path d="m158.889 127.782s-1.845-5.8.659-7.381a5.111 5.111 0 0 0 4.481 2.109s-.527-3.164 0-3.954c0 0 8.831-.923 10.281-2.5 0 0-3.823-.791-4.35-1.977a68.406 68.406 0 0 1 8.436-2.109c5.536-1.054 11.336 8.3 11.336 8.3s-4.218-8.963-1.054-11.336c0 0-6.854-13.049-13.84-10.413-2.636 1.186-3.3 2.636-3.3 2.636s.136-5.272 2.111-5.932c0 0-5.011 1.318-5.8 6.2 0 0-2.5-3.954-5.272-3.823 0 0-3.164 3.032-1.977 6.327 0 0-2.373-4.35-1.582-6.327 0 0-5.4 5.009-2.5 11.731 0 0-3.691.791-5.272 3.3 0 0 2.636-.264 3.427.791-.002-.009-5.67 11.854 4.216 14.358z" fill="#cca44c"/><path d="m187.474 130.662s-2.679 5.828-7.562 7.8-4.785 2.766-3.007 2.766 9.791 1.524 10.569-10.569" fill="none" stroke="#f57f7c" stroke-linecap="round" stroke-linejoin="round" stroke-miterlimit="10"/><ellipse cx="171.473" cy="136.271" rx="1.679" ry="1.799"/><ellipse cx="185.852" cy="126.729" rx="1.621" ry="1.391"/><path d="m190.734 111.503s-2.1 1.478-1 4.935m1.691-1.679a4.483 4.483 0 0 1 0 5.136" fill="none" stroke="#f57f7c" stroke-linecap="round" stroke-linejoin="round" stroke-miterlimit="10"/><path d="m163.502 130.33s-.027-6.213 6.991-5.495m4.98-2.421s.666-5.3 6.8-4.775m-23.743-.785s.065 5.037 4.972 5.561m2.091-9.355a20.864 20.864 0 0 0 8.837-.237c4.442-1.2 6.751-1.155 8.117-.345m-19.968-14.881s-3.46 4.276-.975 8.855m10.599.001s6.345-3.271 10.663 0m-14.392-2.029s6.314-3.336 11.438-1.636" fill="none" stroke="#ba8824" stroke-linecap="round" stroke-linejoin="round" stroke-miterlimit="10"/><path d="m148.677 162.181a3.528 3.528 0 0 0 -3.3 2.191c-1.24 2.932-.842 8.614 3.421 10.643a39.312 39.312 0 0 0 2.377-7.712s-1.487-1.215-2.498-5.122z" fill="#edc9c2"/><path d="m151.175 167.302s-4.137 9.489-1.765 11.442 43.815 5.721 48.978-2.651 11.442-17.708 9.907-28.738-9.768-13.745-9.768-13.745 3.679-5.165-3.159-8.272c-1.1-.552-1.687-.091-1.687-.091.833 2.006 2.892 3.113 2.055 6.049s-3.588 4.616-5 7.543-7.42 4.944-8.456 16.107c-1.7 8.186-4.587 8.618-8.2 15.565-1.385.42-20.404-3.12-22.905-3.209z" fill="#707070"/><path d="m156.928 147.366s-2.53 12.429 7.905 15.022 13.516-10.641 13.516-10.641 7.448-4.576 7.3-9.289c0 0-7.416-1.514-10.86 1.918 0 0-5.688-5.5-11.908-2.169 0 0-2.869-5.987-8.354-6.819-1.615 4.302.389 9.314 2.401 11.978z" fill="#d8d6d6"/><g stroke-linecap="round" stroke-linejoin="round" stroke-miterlimit="10"><path d="m171.933 129.218s-4.685.073-5.417 4.392m8.272-5.49s1.537 5.929 2.928 6.222a4.339 4.339 0 0 0 2.2 0m-1.615-9.005s2.269-4.026 5.929-3.807" fill="none" stroke="#585b6a"/><path d="m165.04 152.531c.5 2.562 1.368 4 .869 3.042.447.862 3.457-2.006 3.457-2.006s-2.994-2.355-4.326-1.036z" fill="#ff807c" stroke="#a4a5a4"/><path d="m158.288 154.946s1.979 5.769 7.733.975c0 0 1.267 6.844 8.138 2.09m-12.812-5.511s-6.71-7.274-11.831-3.015m11.037 4.516s-5.688-4.143-9.378-.482" fill="none" stroke="#585b6a"/><path d="m162.054 155.59s-6.08-2.031-8.117 1.324m15.857-.94s9.125-.061 9.3 6.208m-9.079-4.031s6.137 2.45 6.063 5.507m-3.031-8.712s7.322-1.419 8.583 1.025m-20.724-8.769s2.685-2.737 4.768.945m4.341 1.351s3.517-1.854 4.772 1.568m-18.464-12.996s4.355 1.92 5.025 5.155m22.112.898s-5.416-1.168-7.381 1.168m-17.244 14.401s2.729 6.686 10.389 2.488" fill="none" stroke="#585b6a"/></g><path d="m138.723 105.725s3.562-5.06 1.662-5.773-3.087 2.886-3.087 2.886-1.543-1.829-2.256-.814 2.015 3.775 3.681 3.701zm38.268-13.608c1.147 0 3.772-3.562 2.1-4.868s-3.016 2.434-3.016 2.434-2.1-3.027-2.927-1.722 3.843 4.156 3.843 4.156zm23.348 18.402c1.187 0 5.936-4.511 4.63-5.521s-4.63 2.078-4.63 2.078-1.9-2.731-3.087-2.078 3.087 5.521 3.087 5.521zm-71.351 44.018s-1.425-2.38-2.137-1.532 2.849 5.146 2.849 5.146 3.562-3.985 2.137-5.329-2.849 1.715-2.849 1.715z" fill="#edc9c2"/></g></svg>