<svg viewBox="0 0 102.424 73.943" xmlns="http://www.w3.org/2000/svg"><path d="m9.172 9.408s-3.52-9.535-.726-9.408 7.184 3.689 9.312 4.656c2.131-2.329 16.06-1.346 18.6 1.83 0 0 10.8-3.684 11.815-2.033s-5.58 9.4-5.58 9.4 3.42 24.392-16.144 21.851-23.756-14.485-17.277-26.296z" fill="#5d6466"/><path d="m10.612 29.322s-1.639 9.814-4.271 13.372-10.509 17.023-3.521 24.137 28.584 8 34.047 6.479 22.506-4.783 32.28-1.524 18.045-1.5 18.547-6.015-2.8-12.924 5.764-18.045c11.468-6.856 11.529-32.582 2.506-33.835s-19.549 10.276-25.815 7.769-7.018 1-7.018 1-1.253 3.258 5.263 4.261 15.79-5.263 19.8-7.018 8.271.5 7.769 6.015-2.506 14.035-6.015 16.291a22.37 22.37 0 0 0 -5.514 5.012s-11.112-16.851-20.118-14.632c-8.9 2.193-12.78-1.689-23.959-3.051-11.233-1.364-29.745-.216-29.745-.216z" fill="#5d6466"/><g stroke="#142c35" stroke-linecap="round" stroke-linejoin="round" stroke-miterlimit="10"><path d="m12.563 30.608s6.815 5.793 13.97 4.259a84.164 84.164 0 0 0 11.926-3.407m-24.531-18.57s4-4.6 8.007 0m7.835.904s4.4-4.494 8.689.97m-27.939 41.91s-4.533 9.746-.317 12.948m15.308-15.332s-.852 13.8-3.578 15.844m28.451 0s-3.626-2.044.828-4.941 13.142.681 15.528.681-9.881-7.326-6.3-14.992" fill="none"/><path d="m28.914 19.219s-5-2.408-6.98-.867c-.465.564 2.55 5.683 2.55 5.683z" fill="#142c35"/><path d="m15.622 27.695c5.394 1.638 8.861-3.66 8.861-3.66s.677 6.62 8.767 4.97m-16.088-8.069s-9.764-.568-11.964 2.045m10.423-5.039s-12.078-3.248-14 0m32.493 2.942s13.434-3.954 16.459-1.753m-20.803 3.85s12.278.6 14.065 3.671m-9.721-.508s12.2 5.175 11.1 8.982m-29.593-11.595s-11.115 3.988-11.115 8.388" fill="none"/></g></svg>