<svg viewBox="0 0 82.962 91.526" xmlns="http://www.w3.org/2000/svg"><g transform="translate(-101.918 -90.786)"><ellipse cx="169.079" cy="107" fill="#707070" rx="4.932" ry="5.593"/><path d="m168.952 131.216s3.718 7.946 2.277 16.513-4.03 25.651-4.03 25.651 4.863-.348 5.716 2.49a3.347 3.347 0 0 1 -.934 2.952h-9.97l.336-14.583s-4.352 7.1-5.124 10.647 4.59 1.771 5.124 4.92-4.03 2.4-4.03 2.4a30.981 30.981 0 0 1 -4.62.046c-3.018-.145-3.15-7.582-5.707-6.778s1.448 2.755-1.637 4.723l-11.818.019s-9.158-.424-10.1-5.236 4.491-17.411 1.824-20.166c-1.178-1.216-7.114-4.325-8.767-6.03-2.091-2.157-2.091-2.157-2.973-6.54-.77-3.825-7.127 7.181-8.324 9.216-1.486 2.527-5.8.743-3.716-3.27.631-1.217 5.906-13.42 14.121-10.383 3.38 1.1 1.579 6.59 3.27 7.857 0 0 10.61 4.381 10.61 8.243 0 0 13.06-20.909 14.7-22.689a45.785 45.785 0 0 1 3.7-3.5s-4.618-11.015-3.444-15.474c0 0-2.06-8.435-.486-12.025 0 0 5.41 1.538 7.847 6.228 0 0 6.647-2.8 10-1.149 0 0 2.446-6.315 7.2-6.637 2.34 3.994.806 12.021.806 12.021s2.4 6.439 3.462 9.626c1.327 3.981-5.313 10.908-5.313 10.908z" fill="#f9a253"/><path d="m168.952 131.219s3.718 7.946 2.277 16.513-8.881 16.51-8.881 16.51a76.282 76.282 0 0 1 -4.637-29.831c.143-2.416-6.394-7.53.645-14.913a11.593 11.593 0 0 0 2.165-3.382c.617-3.036-.488-6.751.793-7 .682-.133 3.4 6.251 4.216 6.689 4.915 2.623 5.837 3.791 7.133 5.326 2.216 2.626 1.52 2.285.576 5.142s-4.287 4.946-4.287 4.946z" fill="#ededed"/><path d="m143.953 174.92a17.189 17.189 0 0 0 -4.3-.835c-1.781 0 9.25-8.427 4.865-15.279s-7.948-3.152-7.948-3.152m15.02-5.151a31.613 31.613 0 0 1 0 11.419l-1.913 11.419m19.402-65.103s-2.113-3-4.468-2.962m-13.682 1.724c-1.114.383-3.915 1.716-4.117 3.6" fill="none" stroke="#964b0c" stroke-linecap="round" stroke-linejoin="round" stroke-miterlimit="10"/><ellipse cx="145.997" cy="109.415" fill="#707070" rx="4.932" ry="5.593"/><ellipse cx="145.039" cy="109.112" fill="#b9e4d3" rx="4.525" ry="5.088"/><path d="m147.249 114.824s.392 5.069 3.222 8.192-.39 8.684 2.927 12.783 7.123 4.976 10.148 6.635a6.609 6.609 0 0 1 3.3 4.879s1.483-6.812 4.9-9.5 4.781-8.255 4.2-11.377-3.747-13.742-3.785-15.06m-5.317 35.937s-4.554 23.284-.75 27.607 10.143 3.689 10.143 3.689" fill="none" stroke="#707070" stroke-linecap="round" stroke-linejoin="round" stroke-miterlimit="10"/><path d="m143.419 104.709s-3.412-11.9 6.143-13.559c7.506-1.306 17.216.845 20.436 7.51l-1.5.328c-1.233-3.08-4.96-7.1-16.068-6.613-10.06.437-7.391 11.65-7.391 11.65z" fill="#b9e4d3"/><path d="m184.879 178.37a2.451 2.451 0 0 1 -2.451 2.451h-3.651a2.451 2.451 0 0 1 -2.451-2.451 2.451 2.451 0 0 1 2.451-2.451h3.651a2.451 2.451 0 0 1 2.451 2.451z" fill="#707070"/><g stroke="#964b0c" stroke-linecap="round" stroke-linejoin="round" stroke-miterlimit="10"><path d="m152.311 116.027s1.958-2.945 6.428-1.02m7.031-.436s1.533-2.3 4.62 0" fill="none"/><path d="m162.503 119.866 2.633 3.6 1.164-4.354s-2.734-1.322-3.797.754z" fill="#964b0c"/><path d="m157.338 127.309c7.646 2.836 7.8-3.848 7.8-3.848a4.306 4.306 0 0 0 5.013 4.2m-14.113 2.728s7.611 2 10.262 1.415" fill="none"/></g></g></svg>