<svg viewBox="0 0 78.852 104.298" xmlns="http://www.w3.org/2000/svg"><g transform="translate(-140.117 -122.843)"><path d="m162.557 136.549s-2 7.624-.327 12.175c0 0-2.395 4.31-4.071 4.31 0 0 5.508.239 5.987-1.2 0 0-3.113 10.537-5.987 10.537 0 0 8.86-2.155 8.86-4.071 0 0 5.265 4.31 10.894 4.071a14.492 14.492 0 0 0 9.221-4.071s7.9 4.09 11.734 4.08c0 0-6.226-4.8-6.226-8.391a31 31 0 0 0 6.226-.239s-3.831-1.906-3.831-5.383c0 0 .781-9.041-.656-12.633 0 0 2.93-5.863 1.51-11.615 0 0-8.831 1.626-10.812 8.656 0 0-9.629-2.324-13.221.309 0 0-2.5-10.366-9.882-10.243 0 .003-2.054 11.553.581 13.708z" fill="#d6d1ce"/><path d="m158.1 182.072s-6.7 6.226-3.831 14.847-.716 15.326 1.558 17.242a5.488 5.488 0 0 0 4.429 1.437 3.073 3.073 0 0 1 0 3.992c-1.676 2.155-3.3 7.423.745 7.423s9.313.958 9.313-2.395v-12.133s1.668 2.337 7.895 1.379 5.755-.66 5.755-.66-1.437 8.542 0 10.7 8.621 4.31 9.339 1.437 0 1.755 0-3.034.18-7.165.18-7.165a14.008 14.008 0 0 0 5.188 1.042c2.874 0 1.65-10.88 2.368-13.753s4.071-14.845-.239-19.395-3.982-12.47-6.539-20.65c-2.433-7.781-1.283-9.047-15.411-9.047s-13.806-2.639-20.75 28.733z" fill="#d6d1ce"/><g stroke="#bea08c" stroke-linecap="round" stroke-linejoin="round" stroke-miterlimit="10"><path d="m181.458 145.98s-3.545-1.012-5.469.271l2.583 4.6z" fill="#bda08c"/><path d="m169.354 157.797c1.932 2.049 9.025 7.127 17.7 1.411m-27.854 36.288s-.385 11.072.527 16.283m34.775-16.934s.271 13.548-.51 17.456m-22.184-32.263s-3.9 9.465-1.8 27.445m-7.926 13.029s-2.14 2.291-1.611 4.394m5.566-4.394s-2.337 2.169-1.611 4.394m22.633-4.394s1.026 2.056 0 3.515m3.438-3.515s1.318 3.808 0 4.394" fill="none"/><path d="m166.307 142.038s3.386-4.515 7.51-.458c0 0-2.381 5.495-7.51.458zm23.373 0s-3.386-4.515-7.51-.458c0 0 2.386 5.495 7.51.458z" fill="#fff"/></g><ellipse cx="170.31" cy="142.911" rx="1.498" ry=".885"/><ellipse cx="185.461" cy="142.613" rx="1.498" ry=".885"/><path d="m155.14 153.615c0 6.52-1.62 11.805-3.618 11.805-.291 0-3.15.066-3.416 0-3.033-.758-1.819-5.81-1.819-11.805 0-5.381-.9-11.391 1.819-11.805a29.2 29.2 0 0 1 3.416 0c2-.005 3.618 5.28 3.618 11.805z" fill="#686868"/><path d="m151.725 153.61c0 6.52-1.62 11.805-3.618 11.805-3.618 0-5.234-5.285-5.234-11.805s1.819-11.805 5.234-11.805c1.998 0 3.618 5.285 3.618 11.805z" fill="#3d3d3d"/><path d="m216.487 153.615c0 6.52-1.62 11.805-3.618 11.805-.291 0-3.15.066-3.415 0-3.033-.758-1.819-5.81-1.819-11.805 0-5.381-.9-11.391 1.819-11.805a29.2 29.2 0 0 1 3.415 0c1.998-.005 3.618 5.28 3.618 11.805z" fill="#686868"/><path d="m213.072 153.61c0 6.52-1.62 11.805-3.618 11.805-3.618 0-5.234-5.285-5.234-11.805s1.819-11.805 5.234-11.805c1.998 0 3.618 5.285 3.618 11.805z" fill="#3d3d3d"/><path d="m207.785 152.213h-52.659v2.794h52.659a1.425 1.425 0 1 0 0-2.794zm-60.078 0h-5.882a1.425 1.425 0 1 0 0 2.794h5.882zm68.78-.014h.774a1.425 1.425 0 1 1 0 2.794h-.774z"/><path d="m167.943 151.559s6.238 7.235 10.624-.7c0 0 4.62 5.773 10.545 1.359" fill="#d5d0ce" stroke="#bea08c" stroke-linecap="round" stroke-linejoin="round" stroke-miterlimit="10"/><path d="m170.897 148.228s-11.98-5.233-17.345-1.4m19.108 3.218s-13.377-3.837-16.177 3.941m15.325-2.272s-8.584-.736-11.177 5.59m23.331-7.674s13.517-3.344 19 3.98m-17.501-5.384s12.191-3.065 14.161-1.4" fill="none" stroke="#bea08c" stroke-linecap="round" stroke-linejoin="round" stroke-miterlimit="10"/><path d="m185.461 151.54s11.3-1.912 13.407 4.518m-27.059 11.358s-4.323 3.856-3.865 7.712c0 0 2.363-2.279 3.865-1.928 0 0-3.638 5.258-3 8.063a4.5 4.5 0 0 1 3-1.227m9.645-13.496s6.337 3.242 5.833 6.134a11.8 11.8 0 0 0 -3.858-.35s3.858 3.505 3.529 6.836c0 0-3.224-1.928-3.529-.876 0 0 3.533 2.629 3.63 5.434l-3.1-1.4s-.012 22.691-.533 26.078" fill="none" stroke="#bea08c" stroke-linecap="round" stroke-linejoin="round" stroke-miterlimit="10"/></g></svg>