<svg viewBox="0 0 102.424 104.983" xmlns="http://www.w3.org/2000/svg"><g transform="translate(-118.87 -150.307)"><path d="m151.509 207.113s-27.058 15.221-16.736 22.259 38.843 5.68 38.843 5.68l34.225 15.754 11.863-5.047s3.578-3.853 0-11.355-3.578-16.762-6.974-20.009-21.659-25.827-39.115-19.273-22.106 11.991-22.106 11.991z" fill="#b9e4d3"/><path d="m145.166 178.63s-1.586 33.829 14.8 31.5c14.589-.423 14.413-14.694 14.413-14.694s2.291-25.689-9.867-25.265a28.954 28.954 0 0 0 -19.346 8.459z" fill="#efc9c2"/><path d="m152.46 181.696s7.377 1.9 9.092-6.554c.894-4.411 4.546-5.5 5.814-2.114s-.106 7.717 3.7 9.726c1.856.979 2.537 8.88 3.911 6.766s2.537-22.46-10.571-23.785c-11.366-1.15-18.685 1.182-21.566 12.157-2.22 8.457 2.114 17.125 3.171 17.231s-2.11-7.42-.211-10.36c3.277-5.074 1.9-8.88 4.863-9.726s5.286 2.958 1.797 6.659z" fill="#898888"/><path d="m169.128 186.982a5.578 5.578 0 0 1 -5.409 5.814c-3.357 0-5.55-2.078-5.55-4.969s2.193-6.66 5.55-6.66a5.578 5.578 0 0 1 5.409 5.815zm-12.967 2.907c0 2.89-2.887 5.234-6.449 5.234s-5.18-2.343-5.18-5.234 2.253-4.7 5.814-4.7 5.815 1.809 5.815 4.7zm-.001-1.11 2.009-.952m-1.005 1.797s.37 5.391-1 6.871a3.337 3.337 0 0 0 4.334 1.163" fill="none" stroke="#000" stroke-linecap="round" stroke-linejoin="round" stroke-miterlimit="10"/><path d="m153.834 189.625a4.313 4.313 0 0 0 -6.554 1.8m13.214-3.123s2.22-4.07 6.131-1.321m2.235-1.797 2.756-1.905" fill="none" stroke="#000" stroke-linecap="round" stroke-linejoin="round" stroke-miterlimit="10"/><path d="m165.992 199.457s-5.92 3.594-9.831 2.22-1.9 3.066 5.391 1.8 4.44-4.02 4.44-4.02z" fill="none" stroke="#ff807c" stroke-linecap="round" stroke-linejoin="round" stroke-miterlimit="10"/><ellipse cx="151.509" cy="198.187" fill="#ff807c" rx="1.586" ry="1.269"/><ellipse cx="166.736" cy="195.108" fill="#ff807c" rx="1.484" ry="1.281"/><path d="m152.46 181.696a7.5 7.5 0 0 0 8.851-5.564c2.249-7.122 4.68-4.85 4.68-4.85m-12.896.688a5.584 5.584 0 0 0 -4.086 4.422 20.958 20.958 0 0 1 -2.577 7.307" fill="none" stroke="#636363" stroke-linecap="round" stroke-linejoin="round" stroke-miterlimit="10"/><path d="m159.837 236.464a6.564 6.564 0 0 0 2.772 6.44c3.594 2.537 8.554-7.083 11.941-5.286s19.139 15.328 36.264 17.443 7.823-11.1 7.823-11.1l-28.179-14.592s-22.563-9.69-26.263-5.532-4.358 12.627-4.358 12.627z" fill="#efc9c2"/><path d="m168.036 212.136s-6.7 5.5-7.012 8.251c0 0-4.017-2.537-8.563 5.5s-1.586 9.726 0 9.726c0 0 .634 2.431 3.7.952 0 0 2.432 2.432 4.334-1.057s6.016-12.263 14.055-10.148 13.007 2.22 15.65 5.814-2.432 11.206 1.057 12.58c1.175.463 1.9-.245 2.312.065 0 0 .7 2.013 2.241 1.943a3.494 3.494 0 0 0 3.058-2.22s.317 2.749 2.008.74 2.643-19.768-8.774-21.037-24.066-11.109-24.066-11.109z" fill="#585b6a"/><path d="m167.453 208.23s-.218 12.465 13.761 17.866a10.827 10.827 0 0 0 11.54-2.854c2.011-2.39 6.038-10.871-.622-18.363 0 0 2.93-6.743 1.133-11.051 0 0-6.449.66-9.2 6.051 0 0-8.986-.256-11.1 2.039 0 0-2.643-4.259-11.206-1.934 1.695 5.18 3.245 7.188 5.694 8.246z" fill="#585b6a"/><g stroke-linecap="round" stroke-linejoin="round" stroke-miterlimit="10"><path d="m185.442 210.873s-3.594-.952-5.286 1.374c-.846.528 3.171 3.7 3.171 3.7z" fill="#ff807c" stroke="#d1d1d1"/><path d="m172.969 219.118s7.612 7.612 10.36-3.171c0 0 2.219 6.37 6.871 5.5 3.383-.634 2.432-6.554 2.432-6.554m-14.589-8.778s-3.911-1.566-5.074 2.115m11.1-2.749s1.374-2.22 4.546-.634m-10.572 10.57s-6.977-3.277-11.417 1.9" fill="none" stroke="#d1d1d1"/><path d="m179.628 218.308s-11.206 6.413-10.466 11.064m6.978-11.596s-8.457.43-10.148 3.953m21.988-6.839s7.717-4.95 12.368-1.577m-10.148 4.008s7.612-2.572 10.677.987m-12.897.704s10.466.634 11.946 4.229m-44.669 5.707s-2.756 2.567-2.688 5.457m5.579-3.159s-1.613 2.756-1.613 4.5m38.513 2.221a9.488 9.488 0 0 1 -.884 4.167m5.186-3.36a12.5 12.5 0 0 1 0 4.369" fill="none" stroke="#d1d1d1"/><path d="m165.992 231.246s-4.512 3.935-4.943 6.721m6.481-4.47s-4.248 4.176-4.888 6.553m5.578-3.172-4.196 5.256" fill="none" stroke="#d19a93"/></g><path d="m213.326 200.67s-5.554-5.691-2.962-6.733 2.962 2.454 2.962 2.454 2.469-3.6 4.567-2.563-4.567 6.842-4.567 6.842zm-15.182-17.391s4.726-5.074 2.733-6.185-3.6 2.222-3.6 2.222-2.281-2.843-3.116-1.483 3.983 5.446 3.983 5.446zm-62.333-27.045s4.937-4.567 3.086-5.678-3.579 1.851-3.579 1.851-1.834-1.851-2.892-.988 3.385 4.815 3.385 4.815zm-11.48 59.625s6.912-4.944 4.691-6.8-5.308 3.073-5.308 3.073-2.839-3.05-4.567-1.889 5.184 5.616 5.184 5.616z" fill="#d19a93"/></g></svg>