<svg viewBox="0 0 91.773 97.262" xmlns="http://www.w3.org/2000/svg"><path d="m14.568 71.491s1.273 7.042 3.83 11.139c1.312 2.1 6.772 5.236 11.205 4.472 6.823-1.176 9.186-4.622 10.1-8.838 1.053-4.836-.332-10.281-.789-12.945a18.272 18.272 0 0 0 -.93-17.782c-3.615 2.876-8.042 8.739-7.817 10.623 0 0-7.842.389-11.651 2.4a26.979 26.979 0 0 0 -11.569-5.938c-.918 8.904 6.044 15.866 7.621 16.869z" fill="#e9b56e"/><path d="m39.786 63.354s13.97-11.893 19.067-17.368 13.97-8.684 16.99-8.5 3.218-14.379-2.643-17.746c-7.979-4.582-19.212 9.063-22.843 6.8s5.691-7.646 11.7-10.383a16.906 16.906 0 0 1 13.023 0c5.666 2.832 8.12 13.215 6.421 21.333 0 0 5.136 8.1 6.419 13.036 1.322 5.087.189 14-1.888 18.415s-1.133 10.648-.566 12.913.566 7.363-4.531 7.74-17.919 3.209-17.077 0 2.73-3.587 8.582-3.965 5.03-6.651 4.464-8.916-14.847 2.875-17.679 7.406-4.722 9.143-14.725 9.439c-6.791.2-12.46.251-11.7-2.265.723-2.41 2.454-1.133 8.306-2.077s-3.619-4.456-3.619-4.456-8.872 7.266-14.158 7.832-11.1.493-8.019-2.591c.815-.815.7.03 5.8-1.481s18.676-25.166 18.676-25.166z" fill="#e9b56e"/><g stroke-linecap="round" stroke-linejoin="round" stroke-miterlimit="10"><path d="m74.68 55.668s-5.049 7.573-1.388 12.874 3.617 6.253 3.617 6.253m-32.429 13.414s5.873-2.375 6.993-6.793m-25.546 4.998s8.127-.958 10.763-3.863c3.408-3.754 2.576-10.909 2.576-10.909" fill="none" stroke="#b27328"/><path d="m18.509 71.643s1.59-2.875 5.32-1.416m5.368-.605s1.714-2.823 5.848-1.21" fill="none" stroke="#000"/><path d="m29.498 74.193s-2.755-.812-4.282.812l2.83 2.783z" stroke="#000"/><path d="m21.168 81.416c7.166 3.02 6.92-3.93 6.92-3.93s3.51 5.883 7.653 1.583m-11.911-2.425s-10.224-3.356-11.961.134m10.253 2.583s-7.342-1.658-8.921 2.921m20.447-6.447s5.708-6.213 13.894-3.421" fill="none" stroke="#000"/><path d="m32.641 78.493s6.882-5.165 11.839-1.714" fill="none" stroke="#000"/></g><path d="m21.169 63.148a14.921 14.921 0 0 1 3.811-1.842 19.271 19.271 0 0 1 4.648 0 5.523 5.523 0 0 0 -4.735-1.228c-2.807.614-3.763 2.632-3.724 3.07zm2.664 1.75s3.446-1.842 5.367-.965c-.004.004-4.417 1.232-5.367.965zm27.64-11.82a20.687 20.687 0 0 1 9.9 3.581c4.3 3.23 5.437 6.489 5.437 6.489a31.578 31.578 0 0 0 -16.162-9.324zm-3.233 2.906s2.522-.472 6.819 2.758 5.437 6.489 5.437 6.489-2.92-6.2-13.155-8.451zm-38.429 1.607s6.453 2.928 6.587 4.592a29.468 29.468 0 0 1 -.8 5.731s1.532-6.596-5.787-10.323zm27.7-7.965s-5.4 6.277-4.578 8.327a14.781 14.781 0 0 0 3.758 4.8s-4.646-5.056.82-13.127z" fill="#b27328"/><path d="m37.511 74.795s3.742-1.924 6.335-.806m-23.143 3.798s-4.436-1.6-6.251.116" fill="none" stroke="#000" stroke-linecap="round" stroke-linejoin="round" stroke-miterlimit="10"/><path d="m50.649 12.127s9.847-8.881 21.312-6.615c0 0-14.526-5.714-21.312 6.615zm10.656.681s10.258-6.761 24.3.379c8.519 4.332 5.735 17.006 5.735 17.006s.067-12.687-8.345-16.516a29.55 29.55 0 0 0 -21.69-.869zm19.82-9.695s-8.568-4.346-13.38-1.913c0 0 5.814-3.709 13.38 1.913z"/><path d="m8.462 85.465s-7.325-3.059-8.275 2.743 1.9 6.752 4.137 7.023 7.288.271 7.544-3.663-.694-6.103-3.406-6.103z" fill="#b9e1d2"/><path d="m9.811 92.245a43.294 43.294 0 0 1 5.3 3.085 7.548 7.548 0 0 0 8.72 0c2.132-1.322 8.717-6.167 11.216-5.628s6.586 3.239 9.435 2.138 7.256-5.5 10.647-3.634a7.126 7.126 0 0 1 3.6 5.436" fill="none" stroke="#b9e1d2" stroke-linecap="round" stroke-linejoin="round" stroke-miterlimit="10"/></svg>