<svg viewBox="0 0 120.487 86.276" xmlns="http://www.w3.org/2000/svg"><g transform="translate(-101.076 -118.713)"><path d="m155.594 182.015-4.216 11.961s-9.5-2.345-11.3-.722 7.938 7.938 12.088 5.954 14.974-18.222 14.974-18.222z" fill="#826b4d"/><path d="m133.464 180.552-3.105 16.417 3.931 4.184h7.208a4.909 4.909 0 0 0 -4.914-4.184c-4.524-.29 1.474-13.834 1.474-13.834z" fill="#826b4d"/><path d="m119.507 154.449s11.778-8.9 17.274-9.946 23.295-1.57 29.053 2.356 20.2-8.031 20.2-8.031-2.356-8.637 0-12.563c0 0 7.549 11.113 10.428 11.374s7.564-.644 9.946 2.356c1.82 2.291 5.055 7.189 7 10.009 2.289 3.318.216 8.351-3.711 9.921s-9.488-.919-10.8-.4-5.318 8.268-6.888 11.933-11.516 8.637-11.516 8.637 11.185 12.58 8.637 14.134c-4.5 2.744-11.385 1.825-12.17-1.577a31.479 31.479 0 0 1 4.284-1.742c1.832-.523-14.361-8.459-14.361-8.459s-12.406-2.915-14.761-8.936c1.522 6.875-3.121 11.533-2.513 17.049s5.957 8.726 5.957 8.726 4.9.249 6.575 1.859a3.788 3.788 0 0 1 1.032 3.682c-2.915 0-9.287.311-11.351.044a72.211 72.211 0 0 0 -4.822-7.007c-2.416-3.184-4.538-8.6-7.311-11.947-3.837-4.629-8.738-2.675-10.7-11.234-.879-3.835-5.823-15-9.487-14.479s-24.865-2.879-16.489-21.724c6.282-9.161 3.538-12.463 3.538-12.463s-2.229-6.382.65-7.167 3.664 1.832 4.973 5.235-.262 9.161-4.188 14.657-4.707 15.703 11.521 15.703z" fill="#9b835f"/><path d="m197.051 138.707 1.069-10.14s6.242 8.558 5.886 9.808-6.955.332-6.955.332z" fill="#9b835f"/><path d="m180.49 180.099-10.256-8.9s6.6.442 10.509-1.549c6.7-3.413 12.52-10.089 14.547-10.323 3.209-.37 3.6.2 3.6.2a117.426 117.426 0 0 0 -7.266 12.617c-2.874 6.068-11.134 7.955-11.134 7.955zm-29.112 1.918 13.659-.317s-10.529-2.726-12.918-8.18c.373 5.532-.741 8.497-.741 8.497z" fill="#f4e9dc"/><g stroke="#000" stroke-linecap="round" stroke-linejoin="round" stroke-miterlimit="10"><path d="m208.124 150.997 2.5 2.371 1.382-2.371s-.887-2.376-3.882 0z"/><path d="m200.535 156.492c8.318 3.744 10.085-3.12 10.085-3.12s1.72 2.5 2.953 2.937" fill="none"/><path d="m195.727 144.781s3.1-3.519 6.538-.052c0 0-1.894 3.281-6.538.052zm9.114-.446s2.184-2.946 4.355-.263c0-.001-1.369 2.712-4.355.263z" fill="#fff"/></g><path d="m159.906 194.183s-36.026-2.462-50.374-3.047c2.243-.812 30.474-2.369 50.374 3.047zm-50.374-10.922s31.794 2.282 37.271 2.51c0 0-28.899-5.93-37.271-2.51zm15.139-5.494 48.609 2.332s-35.533-7.239-48.609-2.332zm69.143 6.217s3.879 6.579 0 11.144c0 0 8.215-4.715 0-11.144zm-70.289-46.137s16.888-9.357 25.446-6.39c0 0-12.438-6.162-25.446 6.39zm6.834 3.879s14.318-6.528 23.14-2.694c0 0-10.372-7.575-23.14 2.694zm66.692 36.354s7.96 4.991 5.214 11.476c0 0 6.238-7.3-5.214-11.476z"/><ellipse cx="200.05" cy="145.36" rx=".969" ry=".752"/><ellipse cx="208.02" cy="144.566" rx=".815" ry=".699"/><path d="m203.961 151.656s-12.359-5.222-16.222 0m14.526 1.712s-8.556-1.731-11.892 2.119m13.588 0s-10.109-.346-10.147 2.118m19.759-4.625s6.3-4.439 7.356-1.324m-7.356-1.109s2.283-2.1 3.678-1.924m-3.678 5.61s5.776-.522 5.776 1.237" fill="none" stroke="#000" stroke-linecap="round" stroke-linejoin="round" stroke-miterlimit="10"/></g></svg>