<svg viewBox="0 0 82.667 124.173" xmlns="http://www.w3.org/2000/svg"><path d="m6.74 103.437s0 20.845 19.164 16.474c0 0 8.155 3.292 13.87.5l8.607-2.871 2.232-21.128s-7.59 4.632-10.839 5.339-18.747 4.711-33.034 1.686z" fill="#585b6a"/><path d="m68.285 80.648a10.945 10.945 0 0 0 3.419-4.923c1.667-4 0-18.009 0-18.009-1.875.931-6.668 6.333-6.668 6.333-3.131-1.02-8.182.241-8.182.241-2.2-4.419-7.445-6.574-7.445-6.574-1.543 4.27-1.042 17.171 1.667 19.965a13.994 13.994 0 0 0 2.98 2.344c-2.359 7.991-10.671 34.414-4.689 38.6 6.918 4.843 22.245 5.4 28.021-2.049 4.813-6.206-5.516-27.774-9.103-35.928z" fill="#4a4a4a"/><path d="m3.544 83.432s2.185 17.651 3.194 20 28.076 2.69 33.034-1.681l-1.151-15.818s21.406 10.548 26.112 9.372 9.75-9.75 9.414-13.953-2.691-4.766-4.2-3.757-3.865 5.774-7.564 5.774-15.3-9.687-18.827-14.058-5.716-7.344-8.405-7.455-30.598 10.651-31.607 21.576z" fill="#b9e1d2"/><path d="m26.999 31.169a12.291 12.291 0 0 0 -12.537 6.686c-4.179 8.079-9.751 12.537-10.029 19.781s-.082 18.4-3.038 22.337-.985 6.7 3.745 4.73c2.718 2.4.591 7.292 6.11 5.715 2.512-.985 2.25-2.759 2.25-2.759s3.465 1.971 3.268 3.942 4.336 1.379 6.5-3.942c0 0 4.154 5.854 7.686 4.139 2.342-1.137 0-4.73 0-4.73s3.153 1.577 3.744 0-3.547-8.671-1.971-14.584 18.103-39.275-5.728-41.315z"/><path d="m43.553 37.036s-.832-6.388-2.181-8.405-4.036-5.547-1.6-7.733 5.966 3.362 5.966 3.362 3.7-3.194 5.211-.84 1.85 7.564-7.396 13.616zm12.776-4.539s2.215-12.665 8.909-14.565c10.666-3.026 7.228 4.818 7.228 4.818s4.034-.168 3.362 3.194-4.539 5.211-8.573 4.371a13.726 13.726 0 0 0 -10.926 2.182zm-2.858-13.894c3 .284 5.715-8.631 5.043-14.011s-3.362-4.707-4.539-4.371-2.208 3.026-2.208 3.026-3.868-1.863-5.02 2.354c-1.47 5.38 6.388 5.437 6.724 13.002z" fill="#f57f7c"/><path d="m61.313 119.112s1.1 7.132 10.27 4.463 12.3-8.365 10.674-12.877-8-11.651-4.128-16.191 3.1-6.943 1.247-8.168-3.42 2.874-4.856 4.476-5.022 5.8-.756 13.308 5.467 10.473 2.821 12.659c-4.192 3.464-8.2 4.671-10.252.886s-6.572-1.54-5.02 1.444z" fill="#2d2d2d"/><path d="m56.305 64.664s-4.286 3.48-3.874 7.388m13.221-7.388c2.953 2.45 3.482 3.044 3.468 6.463m-47.4 38.847s.409 6.863 4.182 9.2m12.72-33.241s-2.468-7.213-2.241-10.736m15.5 22.106s8.716 4.453 16.755.339m-14.724 6.176c-.691-.281 3.772 1.658 7.084 1.325m-10.384 2.571s11.426 3.932 19.971.759m-5.482-3.973s4.245-.439 5.481-1.382m-19.97 9.545s4.826 2.121 7.773 1.414m8.998.144s6.082-1.473 7.261-2.576" fill="none" stroke="#2d2d2d" stroke-linecap="round" stroke-miterlimit="10"/></svg>