<svg viewBox="0 0 107.712 75.698" xmlns="http://www.w3.org/2000/svg"><g transform="translate(-60.566 -152.791)"><path d="m118.432 168.294s-3.826 6.066-2.488 8.955.616 4.159 0 5.31c0 0 4.111-.514 3.78-1.429 0 0 .5 6.809-1.062 6.849 0 0 5.165-2.835 5.128-4.156 0 0 6.968 4.243 10.45 4.071 0 0 1.078 1.794.1 2.837 0 0 2.58-.852 2.576-2.825 0 0 2.836 2.408 4.336 1.991 0 0-1.084-2.8 0-4.008l5.923-3.33s2.253 3.286 3.922 3.33a31.087 31.087 0 0 1 -1.229-6.377s3.308-.261 3.171 1.618c0 0-1.037-6.328-1.061-7.451s-1.144-7.524-2.889-8.171c0 0 2.24-10.033.977-12.328s-8.1 6.318-8.1 6.318-11.006-1.484-15.693.63c-4.021 1.814-9.744-2.372-12.174-.905s4.333 9.071 4.333 9.071z" fill="#d3d3d3"/><path d="m159.238 217.852c-1.17-1.685-4.381-1.252-4.381-1.252s1.235-14.181-1.814-20.049-8.082-16.412-8.082-16.412l-23.85.993s-3.337 5.558-7.534 6.849c-3.444 1.059-13.467 1.7-19.376 5.283s-1.612-15.812-9.648-13.12c-7.416 2.484-6.676 5.3-11.057 3.686-4.744-1.746-9.753-9.024-12.725-6.108-1.962 1.925 10.639 10.264 10.639 10.264s4.59 2.752 8.345 0c4.625-3.389 5.841-4.293 7.927-2.544s1.068 11.02 2.724 11.6c-4.2 7.315-8.337 28.83.614 30.62 9.388 1.878 19.433 0 19.433 0s4.558-1.878.591-5.215c0 0 6.36 3.338 10.065 3.755s17.988 1.46 20.86 1.043 2.991-4.172 2.991-4.172l3.574-.835a9.608 9.608 0 0 0 5.144.835c2.639-.421 7.436-1.152 5.56-5.221z" fill="#d3d3d3"/><g stroke-linecap="round" stroke-linejoin="round" stroke-miterlimit="10"><path d="m122.258 183.824s9.3 4.059 11.983 4.071 5.484-2.634 7.731-4.071m-40.519 17.546s7.719 6.52 3.964 12.543-8.136 7.692-8.136 7.692 9.8.417 11.265 1.252m23.569-2.953s8.654-.755 9.857.473m-4.42 3.525s4.171-.207 4.42 1.668m-.715-3.965s1.78-.119 2.136 2.291m9.655-4.847s3.824-.513 3.824 2.555m-.519-4.435s3.077 1.088 2.648 2.736m-34.534-40.239s8.015 4 8.846-2.927c0 0 1.483 6.055 9.012 3.4" fill="none" stroke="#919191"/><path d="m130.299 173.332 3.014 3.407 2.584-4.18s-3.913-1.238-5.598.773z" fill="#919191" stroke="#919191"/><path d="m133.881 179.666s-5.3 7.248-7.162 14.161" fill="none" stroke="#03b3db"/></g><path d="m127.184 192.848s-6.361-1.257-8.522 2.262c0 0 6.29.5 7.846-.628 0 0 2.812 4.846 4.949 5.027 0 0 .126-5.405-4.273-6.661z" fill="#03b3db"/><path d="m125.06 188.687h3.566l2.465 2.617m-4.012-8.17 4.677-.879 2.124 3.179" fill="none" stroke="#03b3db" stroke-linecap="round" stroke-linejoin="round" stroke-miterlimit="10"/><path d="m122.821 169.628s3.313-3.55 7.079-.495m6.711.493s2.482-5.034 7.263-.495m-17.156 5.33s-14.969-3.2-21.077 2.278m17.176-.786s-12.552.975-15.7 6.3m32.643-7.792s13.72-2.456 17.936 2.278m-19.477.294s13 2.253 12.883 8.855m-7.709-10.606s11.463 2.464 11.567 6.179m-26.883-4.722s-11.754 2.028-12.282 7.083" fill="none" stroke="#919191" stroke-linecap="round" stroke-linejoin="round" stroke-miterlimit="10"/><path d="m151.276 216.15v6.78s2.015 1.7 8.1 1.674c5.7-.022 7.43-1.674 7.43-1.674v-6.78s-1.734 1.653-7.43 1.674c-6.088.023-8.1-1.674-8.1-1.674z" fill="#03b3db"/><ellipse cx="159.042" cy="215.958" fill="#919191" rx="7.766" ry="2.019"/><path d="m165.262 215.23c-6.911-2.4-7.9-9.985-3.78-10.149s10.691 12.553 3.78 10.149z" fill="#d3d3d3"/></g></svg>