<svg viewBox="0 0 353 389" xmlns="http://www.w3.org/2000/svg"><path d="m172.4 71c38.9 2.2 69.3 15.5 87.9 47.5 13.4 23.1 15.7 48.7 8 74.9-6.7 23.1-16.4 45.2-29 65.7-1.8 2.9-3.2 5.9-4.4 9.1-1.3 3.8-2.1 6.8 1.8 10.9 10.7 11.2 10.6 25.4 1.5 38.3-1.3 1.8-2.7 4-2.7 6.1 0 17.3-10.3 27-24.7 33.2-4.7 2-7.4 4.7-8.9 9.6-1.4 4.4-3.5 8.6-6.2 12.4-5.8 7.8-13.5 12.3-23.5 9.7-10.4-2.7-17.7-9-18.9-20-.6-5.1-3-6.1-7-7.3-18.4-5.2-22.4-10.8-22.4-29.6 0-1.9-1.6-4.1-3-5.6-11.4-12-12.4-27.2-2.9-41 1.4-2.1 2.4-5.5 1.7-7.7-2.9-9.1-6.3-18-10.3-26.6-7.7-16.3-18.4-31.6-23.7-48.6-9.8-31.4-4.8-61.8 13.4-89.7 17.9-27.8 45.2-37.7 73.3-41.3zm22.9 225.6c7.4-3.2 13.6-5.7 19.5-8.6 1.5-.9 2.4-2.4 2.7-4.1.5-15.4 8.8-27.7 15.2-40.9 6.6-13.7 13.8-27.4 17.9-41.9 4.2-15 8.2-31.3 6.5-46.4-4.3-38.3-31.8-63.3-70.7-68-50.4-6.1-102.6 36.2-89 101.9 3.4 16.5 12.2 32.3 20.3 47.4 8.3 15.4 16.9 30.3 17.3 48.4 0 1.7 1.4 4.2 2.9 4.9 5.4 2.5 11.1 4.5 18.5 7.4 1.1-23 2.2-44 3.1-62.8-10.8-3-19.9-3.8-27.2-7.8-11.2-6.1-13-21.5-5.3-31.9 6.8-9.2 17.9-9.9 28.7-1.7 1.1.8 2.1 1.7 2.2 1.7-2.5-8.6-6.4-17.7-7.5-27.2-2.1-17.6 11.1-30.3 26.2-26.7 10.8 2.6 16.5 10.4 18.9 20.5 1.3 5.6 1.5 11.6 2.2 17.8 2.9-2.2 5.9-4.2 9-6.1 8.3-4.5 17.5-3.6 23.1 2 6 6.2 7.1 15.6 2.7 23-2.2 3.9-5.3 8.3-9.1 10.2-6.8 3.5-14.2 5.9-21.8 7.1-5.5.8-7.9 2.3-8 7.8-.2 16-.8 32-.7 48 .2 8.1 1.5 16.2 2.4 26zm-69.1 2.2c-2.3 10.4.1 16 9.6 20.7 16.6 8.2 34.5 9.4 52.2 5.9 11.4-2.2 22.6-6.8 33.1-11.9 6-2.9 10.8-8.9 8.5-17.3-34.2 20.7-68.6 19.4-103.4 2.6zm10.9 36.6c.3 7.6 2.3 11.1 10.6 12 13.5 1.5 27.3 2.5 40.7 1.5 11.4-.9 22.2-5.8 31.2-16.6-28.1 10.1-54.8 11.9-82.5 3.1zm40.7-143.4 3.3-.5c.2-9.3 1-18.6.2-27.8-.4-5.2-3.9-10-10.4-9.1s-6.6 6.7-6.3 11.4c.6 10.2 5.4 19.6 13.2 26zm1.2 29.3-2.6-.9c-1.4 3.2-3.7 6.4-3.9 9.6-.9 15.9-1.1 31.9-1.8 47.8-.3 6.3-1.1 12.5-1.6 18.9h9.9zm-25.2-3.3 1.5-2.7c-2.4-3.5-4.5-7.3-7.3-10.5-2.6-3-6.2-5.7-9.6-1.4s-1.8 8.8 2.5 11.1c3.9 2 8.6 2.4 12.9 3.5zm12.4 146.4c.3 7.6 5 11 10.4 10.9 6.4 0 9.4-5.4 11.5-10.9zm34.7-166.1 1.9 2.3c6.4-1.2 12.9-2.5 16.5-8.9 1-1.7.4-4.2.5-6.4-2.2 0-5.1-.9-6.3.2-4.5 3.9-8.5 8.5-12.6 12.8zm74-107.8c-4 1.4-5.1-3.3-5.4-5.2-.3-2.7.6-5.4 2.5-7.4 7.1-6.4 14.5-12.5 22-18.4 8.7-6.9 17.6-13.6 26.4-20.4 4-3 8.5-5.3 12.2-.5 3.8 5-.1 8.5-4 11.5-15.6 12-31.1 24.1-46.7 36.1-1.9 1.6-4 3.5-7 4.3zm-190.2-11.7c-.6 3-2.2 5.2-4.2 5.5-2.9.2-5.8-.8-7.9-2.9-4.9-5.6-8.9-12-13.5-17.9-6.8-8.7-14.2-17.1-20.6-26.2-1.7-2.4-4.2-7-1.1-10.2 3.2-2.3 8.5-.3 10.1 1.7 12.3 14.6 24 29.7 35.7 44.7.9 1.4 1.3 2.1 1.5 5.3zm172.5-60.1c0 3.8-1.8 4.9-3 6.5-10 13.1-20.1 25.7-30.6 38.5-1.6 1.9-3.5 2.2-7.1 1-.4-.2-.8-.4-1.2-.7-2.9-2.9-3.6-4.7-2.5-6.3 10.1-14.3 20.6-28.3 31.6-41.9 1.4-1.8 5-2.7 7.8-2.3 2.5.6 4.4 2.7 5 5.2zm44 132.3c-4.7 0-6-3.7-6.6-5.9-1.1-3.6 2.4-6.4 4.7-7.2 15.3-5.3 30.8-10.2 46.5-14.5 2.3-.6 6 1.4 6.9 3.4s0 7.5-1.9 8.1c-16 5.7-32.3 10.6-49.6 16.1zm-248.4-20.5c-16.8-3.7-32.5-6.9-48-10.8-3.3-.8-5.5-4-4.8-7.4 1.5-3.1 6.1-4.5 8.9-4.2 11 1.5 21.8 4 32.7 6.1 4 .8 8.5.8 12 2.6 2.6 1.3 5.2 5.1 5.3 7.8-.2 3.2-2.8 5.8-6.1 5.9zm114.5-82.1c-.8 2.8-2.7 5.5-5.4 5.8-4.2.5-6.9-1.7-7.5-3.6-4.9-14.3-9.2-28.9-13-43.5-.5-3.1 1.4-6 4.4-6.8 2.7-.8 5.6.5 6.8 3 5.1 14.4 9.6 29.2 14.7 45.1z" fill="#4a4a4a"/><g fill="#f4c803"><path d="m195.3 296.6c-.9-9.8-2.2-18-2.2-26.1-.1-16 .5-32 .7-48 .1-5.4 2.5-7 8-7.8 7.6-1.2 14.9-3.6 21.8-7.1 3.8-1.9 6.9-6.3 9.1-10.2 4.4-7.4 3.2-16.8-2.7-23-5.6-5.6-14.7-6.5-23.1-2-3.1 1.9-6.1 3.9-9 6.1-.7-6.2-.9-12.2-2.2-17.8-2.4-10.2-8.1-17.9-18.9-20.5-15.2-3.7-28.4 9.1-26.2 26.7 1.1 9.5 5 18.6 7.5 27.2-.1 0-1.1-.9-2.2-1.7-10.8-8.2-21.9-7.5-28.7 1.7-7.7 10.5-5.9 25.9 5.3 32 7.4 4 16.4 4.9 27.2 7.8-.9 18.8-2 39.7-3.1 62.8-7.4-2.9-13.1-4.8-18.5-7.4-1.4-.7-2.8-3.2-2.9-4.9-.4-18.1-9-33-17.3-48.4-8.1-15.1-16.9-30.9-20.3-47.4-13.6-65.7 38.5-108 89-101.9 38.8 4.7 66.3 29.7 70.7 68 1.7 15.1-2.3 31.4-6.5 46.4-4.1 14.5-11.3 28.2-17.9 41.9-6.4 13.2-14.7 25.5-15.2 40.9-.2 1.7-1.2 3.2-2.7 4.1-6.1 2.9-12.3 5.4-19.7 8.6zm-69.1 2.2c34.8 16.8 69.2 18.1 103.3-2.6 2.3 8.5-2.5 14.4-8.5 17.3-10.5 5.1-21.7 9.7-33.1 11.9-17.7 3.5-35.6 2.3-52.2-5.9-9.4-4.7-11.8-10.3-9.5-20.7zm10.9 36.6c27.7 8.9 54.4 7 82.6-3.2-9 10.8-19.8 15.7-31.2 16.6-13.5 1.1-27.2 0-40.7-1.5-8.4-.9-10.4-4.3-10.7-11.9z"/><path d="m177.8 192c-7.8-6.4-12.6-15.8-13.1-25.9-.3-4.7-.4-10.5 6.3-11.4s10 3.9 10.4 9.1c.7 9.2-.1 18.5-.2 27.8zm1.2 29.3v75.4h-9.9c.6-6.3 1.4-12.6 1.6-18.9.7-15.9.9-31.9 1.8-47.8.2-3.3 2.6-6.4 3.9-9.6zm-25.2-3.3c-4.3-1.1-9-1.4-12.8-3.4-4.4-2.3-5.9-6.8-2.5-11.1s7-1.6 9.6 1.4c2.8 3.2 4.9 7 7.3 10.5-.6.8-1.1 1.7-1.6 2.6zm12.4 146.4h21.9c-2.1 5.5-5 10.9-11.5 10.9-5.4.1-10.1-3.3-10.4-10.9zm34.7-166.1c4.1-4.3 8-8.9 12.5-12.8 1.2-1.1 4.2-.2 6.3-.2-.1 2.1.5 4.7-.5 6.4-3.6 6.4-10.1 7.7-16.5 8.9z"/></g></svg>