<svg viewBox="0 0 374.02 374.02" xmlns="http://www.w3.org/2000/svg"><path d="m357.45 181.14c-24.07-41.66-21.45-84.6-21.45-84.6-10.4 20.8-11.24 99.08-12.48 111 .49-24-32.17-136.71-32.17-136.71 2.63 54.44-4 133.74-7.36 150.57 5.41-40.59-16.49-143.11-16.49-143.11 2.94 80.16-5.18 101.94-16.83 124.34 3.82-72.21-19.77-119.76-19.77-119.76 5 53.16 3.59 104.54-8 121.15 8.58-29.33-13.85-104.61-13.85-104.61 1.12 29.58-7.39 99.5-12.5 108.08-23.14-59.82-10.53-121.21-10.53-121.21-15.36 13.13-19.33 71.79-17.68 84.18-1.68-12.67-18.49-43.18-14.65-76.89-6.69 3.49-16.69 55.73-20.21 71.62 5.55-32.59-21.55-81.51-21.55-81.51 7.68 39.21-11.73 103-11.73 103-27.05-34.68-12.27-113.68-12.27-113.68-13.52 16.5-28.32 95.48-32.11 114.34-11.82-71.34 9.01-117.84 9.01-117.84-18.55 16.5-31.15 71.89-30.39 86.26-11.37-10.76-4.12-51.76-3.58-66.85 0 0-26.09 75.5-26.35 99.16-.24 1.54-.44 3.06-.62 4.58 9.27 91.83 88.84 176.35 183.11 176.35 81.76 0 180.85-61.68 181.54-188.58 1.94-10.21-5.07-26.49-2.77-34.67.49-3.48-4.46-8.93-4.17-12.48-5.44-3 3.62 61.31-4.15 47.87z" fill="#703913"/><path d="m339.55 82c.52 14.85 19 110.17.57 135.9.73-14.11-14.14-131.14-32.07-147.36 0 0 20.59 87.92-8.15 146-3.66-18.54-8.73-125.23-21.16-131.9 0 0-1 136.34-14.9 147.81 0 0-17.11-77.45-7.08-153.1 0 0-20.81 61-17.19 157.26-4.17-20.53-13.64-136.11-22.82-140 0 0 6.43 108.53-11.15 126.17 0 0-8.88-72.49-5.25-140.75 0 0-16.14 63.52-16.94 142.83.12-12.29-7.86-117.6-27-139.3 0 0 16.13 115.66 1.36 143.46-5.83-13.9-17.41-123.23-16.77-132.02 0 0-19.54 98.55-15.15 128.53-11.27-22-22.14-124.35-21.2-151.14 0 0-31.67 106-19 145.6 0 0-28.14-80.84-15.4-143.39 0 0-11.71 12-23 137.41-16.61-57.86 1.6-98-9.49-130.63 0 0-5.26 41.9-27.8 77.4-8-.94 1.11-17.59-1.32-18.46-18.7 147.68 80.68 226.68 178.36 226.68s178.61-80.79 182.93-177.48c-4.15-51.99-30.38-109.52-30.38-109.52z" fill="#632800"/><circle cx="187.01" cy="187.01" fill="none" r="182.01" stroke="#492107" stroke-miterlimit="10" stroke-width="10"/></svg>