<svg xmlns="http://www.w3.org/2000/svg" viewBox="0 0 20.809 17.065">
    <path fill="#585b6a"
          d="M3.5 13.193V3.838a1.253 1.253 0 01-1.635-.715c-.394 0-.752.006-1.111 0a.65.65 0 01-.731-.68.151.151 0 000-.039c-.101-1.042.145-1.326 1.184-1.326a.856.856 0 00.834-.38A1.08 1.08 0 013.528.472a.7.7 0 00.334.058q6.477-.042 12.953-.1a.9.9 0 00.459-.152.946.946 0 011.488.183.483.483 0 00.286.14 4.327 4.327 0 00.507 0c.821 0 1.127.326 1.085 1.153a1.966 1.966 0 01-.036.27c-.159.826-.255.922-1.1.934a.747.747 0 00-.707.353 1.191 1.191 0 01-1.416.579v9.175a1.244 1.244 0 011.649.791.372.372 0 00.29.124c.3 0 .595-.037.892-.053.438-.024.606.124.6.557-.01.415-.039.832-.082 1.245a.412.412 0 01-.483.395c-.363-.01-.727 0-1.141 0a1.166 1.166 0 01-1.426.923 51.476 51.476 0 00-6.756-.13c-2.251-.049-4.5-.006-6.75 0a2.064 2.064 0 00-.617.053 1.394 1.394 0 01-1.573-.556.5.5 0 00-.324-.134c-.285-.016-.571.005-.857 0a.488.488 0 01-.515-.443 5.973 5.973 0 01-.012-1.313c.019-.161.253-.31.412-.435.07-.054.2-.029.305-.037a1.969 1.969 0 001.545-.611c.176-.202.633-.171.962-.248zm13.156.156V3.686H4.1c.052 3.226.1 6.436.154 9.661zm-6.1 2.836h6.471c.269 0 .471-.022.415-.371-.07-.435-.129-.869-.2-1.3-.054-.331-.231-.451-.589-.45-4.056.013-8.108.006-12.162 0-.821 0-.984.15-1.014.991a3.522 3.522 0 00.081.77.492.492 0 00.569.443c2.142-.012 4.286-.083 6.43-.083zM3.458 1.178a1.962 1.962 0 00-.03 1.4.471.471 0 00.546.386c4.184-.01 8.368 0 12.551 0a1.686 1.686 0 00.426-.018c.09-.024.22-.12.229-.2a9.727 9.727 0 00.082-1.2c0-.326-.155-.478-.535-.473-3.428.045-6.86.068-10.29.093-.997.012-1.998.012-2.979.012zM17.6 13.725a5.96 5.96 0 01.531 2.612c.14-.119.3-.254.307-.4a9.047 9.047 0 00-.01-1.776.533.533 0 00-.828-.436zM17.735 3.3a.975.975 0 00.657-.681 3.233 3.233 0 00-.129-1.686.439.439 0 00-.249-.264c-.129-.038-.356-.036-.271.215a4.513 4.513 0 01-.007 2.416zM3.128 13.872c-.557.19-.783.679-.741 1.505.03.6.166.8.631.909a3.179 3.179 0 01.11-2.414zm15.9-12.679l.1 1.181c.282-.074.643-.064.748-.224.131-.2.168-.662.036-.785-.178-.168-.556-.122-.881-.172zM.931 15.657l.8-.051v-.958c-.924-.07-1.071.114-.8 1.009zm18.212-1.027c.04.279-.009.659.133.755a.823.823 0 00.785.028c.159-.155.1-.539.131-.833zM1.749 2.421l-.076-.769c-.178.018-.33.037-.483.048-.628.045-.69.141-.47.793zM2.876.873c-.755.43-.522 1.04-.479 1.579s.158.663.573.734A2.905 2.905 0 012.876.873z"/>
    <path
        fill="#fff"
        d="M16.656 13.349h-12.4c-.051-3.225-.1-6.435-.154-9.663h12.554zm-6.575-5.056v.077h3.39c.483 0 .966.024 1.441-.016.145-.012.274-.2.41-.314a1.718 1.718 0 00-.363-.332 1.01 1.01 0 00-.422-.033q-4.563-.017-9.126-.029c-.1 0-.23-.028-.306.021-.1.066-.231.193-.232.294s.12.232.219.31c.058.048.175.022.266.022zm-1.282 4.466h3.35c.241 0 .461-.022.465-.331 0-.324-.237-.322-.465-.322H5.527c-.246 0-.5.013-.491.345.013.3.262.306.491.306zm3.347-2.83V9.92H9.227c-.257 0-.5.038-.5.349s.262.308.488.31q2.92.027 5.838.048c.241 0 .5-.026.506-.346s-.25-.351-.5-.351zm-4.032-4.3h2.771c.238 0 .462-.03.483-.326.023-.314-.225-.338-.447-.367a1.292 1.292 0 00-.193 0l-5.23.029a.814.814 0 00-.346.032c-.11.055-.268.177-.263.263a.576.576 0 00.228.348c.066.053.2.024.3.024H8.11zm5.867-.091v.013h.894c.246 0 .506-.011.521-.325s-.267-.35-.5-.358c-.634-.021-1.27-.023-1.9-.028-.239 0-.492.069-.446.347.022.136.262.308.424.334a6.382 6.382 0 001.009.017zM10.556 16.185c-2.144 0-4.287.07-6.431.086a.493.493 0 01-.569-.443 3.436 3.436 0 01-.08-.77c.032-.841.2-.991 1.014-.991 4.056 0 8.108.008 12.162 0 .357 0 .535.119.589.45.071.435.131.869.2 1.3.056.349-.145.372-.415.371-2.157-.006-4.314 0-6.471 0zM3.459 1.175c.982 0 1.98.006 2.98 0 3.428-.025 6.86-.048 10.29-.093.38 0 .531.145.535.473a9.728 9.728 0 01-.081 1.2c-.009.076-.139.172-.229.2a1.69 1.69 0 01-.426.018c-4.184 0-8.367-.012-12.551 0a.473.473 0 01-.546-.386 1.973 1.973 0 01.028-1.412zM17.601 13.725a.533.533 0 01.828.44 9.047 9.047 0 01.01 1.776c-.007.142-.167.277-.307.4a5.923 5.923 0 00-.531-2.616zM17.74 3.3a4.523 4.523 0 00.008-2.414c-.085-.251.141-.253.271-.215a.439.439 0 01.249.264 3.231 3.231 0 01.129 1.685.974.974 0 01-.657.68zM3.128 13.872a3.18 3.18 0 00-.11 2.414c-.465-.11-.6-.312-.631-.909-.042-.826.184-1.315.741-1.505zM19.031 1.193c.326.048.7 0 .883.172.132.123.1.587-.036.785-.105.159-.466.149-.748.224l-.099-1.181zM.934 15.657c-.272-.894-.124-1.075.8-1.009v.958zM19.144 14.63l1.049-.048c-.035.295.028.678-.131.833a.823.823 0 01-.785-.028c-.142-.099-.093-.48-.133-.757zM1.749 2.422L.72 2.494c-.22-.652-.156-.748.47-.793.152-.011.3-.03.483-.048l.076.769zM2.875.873a2.891 2.891 0 00.1 2.311c-.413-.069-.531-.191-.573-.732S2.12 1.303 2.875.873z"/>
    <path
        fill="#ff807c"
        d="M10.08 8.37c-1.573 0-3.145-.075-4.718-.076-.091 0-.208.024-.266-.022-.1-.079-.22-.205-.219-.31s.128-.228.232-.294c.075-.048.2-.022.306-.021l9.126.029a1 1 0 01.422.033c.141.07.136.174.136.338s-.039.295-.184.307c-.478.041-.96.016-1.441.016zM8.799 12.759H5.527c-.229 0-.479 0-.491-.306-.014-.333.245-.345.491-.345h6.622c.228 0 .47 0 .465.322 0 .309-.226.331-.465.331h-3.35zM12.146 9.92c.973 0 1.946.008 2.919.01.247 0 .5.029.5.351s-.265.348-.506.346q-2.919-.02-5.838-.048c-.226 0-.485-.01-.488-.311s.241-.35.5-.349h2.919zM8.114 5.628H5.421c-.1 0-.239.029-.3-.024a.576.576 0 01-.228-.348c0-.085.153-.208.263-.263a.821.821 0 01.346-.032q2.615-.017 5.23-.029a1.289 1.289 0 01.193 0c.222.032.47.053.447.367-.022.3-.246.327-.483.326l-2.775.003zM13.981 5.549a6.49 6.49 0 01-1.009-.028c-.162-.026-.4-.2-.424-.334-.046-.278.208-.349.446-.347.635 0 1.27.007 1.9.028.231.008.513.03.5.358s-.275.327-.521.325h-.894z"/>
</svg>
