<svg xmlns="http://www.w3.org/2000/svg" viewBox="0 0 17.87 17.214">
    <defs/>
    <defs>
        <style>
            .b{fill:#f4c803}
        </style>
    </defs>
    <path fill="#585b6a" d="M9.686 17.213c-3.938-.2-6.735-1.648-8.522-4.73A8.215 8.215 0 016.654.205a9.352 9.352 0 0111.03 6.969 8.149 8.149 0 01-5.392 9.467 19.389 19.389 0 01-2.606.572zm-1.523-5.828c-.03-.071-.031-.089-.04-.1-.11-.081-.221-.161-.333-.24a3.458 3.458 0 01-1.684-3.198 7.914 7.914 0 01.587-2.005c.262-.693.639-1.342.9-2.035a2.767 2.767 0 00-.316-2.6.46.46 0 00-.582-.223A7.451 7.451 0 00.852 9.309a7.582 7.582 0 001.181 3.145 5.1 5.1 0 014.865.407zm-.693 1.973a3.677 3.677 0 011.336 2.231 3.741 3.741 0 00.16.423.5.5 0 00.573.36c.4-.039.8-.048 1.191-.1a7.486 7.486 0 006.359-7.948c-.04-.516-.252-.667-.754-.563a2.018 2.018 0 00-1.308 1.059 8.172 8.172 0 01-2.406 2.522 2.916 2.916 0 01-1.7.563c-.572-.009-1.142-.124-1.715-.174-.141-.012-.344-.009-.421.075-.446.489-.856 1.006-1.311 1.554zm1.182-2.72c.441-.669.883-1.346 1.332-2.019a30.433 30.433 0 003.074-6.158c.1-.255.086-.41-.19-.559A8.673 8.673 0 009.712.859C9.125.789 8.528.79 7.854.756c.118.223.179.329.232.438A3.321 3.321 0 018.4 3.63a16.389 16.389 0 01-.573 1.543c-.269.661-.609 1.3-.824 1.977a2.814 2.814 0 001.649 3.486zm.675.334a3.354 3.354 0 002.845-.27 7.208 7.208 0 002.206-2.317 2.608 2.608 0 012.428-1.431 7.439 7.439 0 00-2.977-4.333 34.323 34.323 0 01-4.494 8.352zM6.3 13.404a3.891 3.891 0 00-3.805-.291 8.235 8.235 0 002.306 2.019zm-.879 2.074a8.239 8.239 0 002.8.838c-.3-.926-.432-1.884-1.358-2.441z"/>
    <path d="M8.163 11.385l-1.265 1.478a5.1 5.1 0 00-4.865-.407A7.582 7.582 0 01.852 9.311 7.451 7.451 0 016.695.984a.46.46 0 01.579.223 2.771 2.771 0 01.316 2.6c-.262.693-.639 1.342-.9 2.035a7.914 7.914 0 00-.587 2.005 3.451 3.451 0 001.688 3.2c.111.079.223.159.333.24.006.007.006.025.039.098zM7.47 13.355c.455-.549.867-1.065 1.308-1.555.076-.086.281-.086.421-.075.572.051 1.142.165 1.715.174a2.913 2.913 0 001.7-.563 8.172 8.172 0 002.406-2.522 2.016 2.016 0 011.308-1.059c.5-.1.714.048.754.563a7.482 7.482 0 01-6.356 7.948c-.394.057-.794.065-1.191.1a.5.5 0 01-.573-.36 3.741 3.741 0 01-.16-.423 3.666 3.666 0 00-1.332-2.228z" class="b"/>
    <path d="M8.652 10.636A2.817 2.817 0 017 7.149c.215-.678.559-1.316.825-1.978a16.389 16.389 0 00.573-1.543 3.32 3.32 0 00-.314-2.436c-.053-.11-.113-.215-.232-.438.674.034 1.27.034 1.859.1a8.675 8.675 0 013.156 1.045c.275.15.287.305.19.559a30.218 30.218 0 01-3.074 6.159l-1.331 2.019zM9.329 10.971a34.3 34.3 0 004.5-8.351 7.439 7.439 0 012.977 4.333 2.608 2.608 0 00-2.421 1.432 7.21 7.21 0 01-2.205 2.317 3.356 3.356 0 01-2.851.269zM6.306 13.407l-1.5 1.729A8.235 8.235 0 012.5 13.117a3.887 3.887 0 013.806.29zM5.422 15.477l1.445-1.6c.925.559 1.055 1.515 1.358 2.441a8.207 8.207 0 01-2.803-.841z" class="b"/>
</svg>
