<svg xmlns="http://www.w3.org/2000/svg" viewBox="0 0 21.108 19.834">
    <path fill="#ff807c"
          d="M10.211 19.834a12.554 12.554 0 01-4.38-.7 3.415 3.415 0 01-2.192-4.494 2.622 2.622 0 011.24-1.339 6.787 6.787 0 002.391-2.184 4 4 0 014.155-1.877 3.17 3.17 0 012.1 1.416 7.792 7.792 0 01.821 1.362 3.138 3.138 0 001.188 1.339c.353.236.688.5 1.024.759a1.938 1.938 0 01.758 1.849 3.647 3.647 0 01-2.319 3.175 10.567 10.567 0 01-4.786.694z"/>
    <path fill="#585b6a"
        d="M9.48 6.331a1.061 1.061 0 01-.025.4 5.452 5.452 0 01-.4 1.24 1.828 1.828 0 01-2.834.6 5.308 5.308 0 01-1.658-2.248 7.46 7.46 0 01-.8-3.693 2.573 2.573 0 011.8-2.342 1.438 1.438 0 011.6.472 7.865 7.865 0 012.141 4.242c.068.396.107.799.176 1.329zM11.632 5.828a7.707 7.707 0 011.522-4.683 4.723 4.723 0 01.678-.734 1.355 1.355 0 012.174.318 4.865 4.865 0 01.647 3.247 7.183 7.183 0 01-1.321 3.452c-.663.95-1.393 1.285-2.217 1.041a2.219 2.219 0 01-1.483-2.137c-.006-.169 0-.333 0-.504zM21.108 8.96a4.92 4.92 0 01-2.632 4.276 1.446 1.446 0 01-2.189-1.391 6.988 6.988 0 012.015-4.281 2.1 2.1 0 01.48-.346 1.443 1.443 0 012.2.9 6.53 6.53 0 01.126.842zM4.292 10.939c-.01.2-.007.4-.031.592a1.4 1.4 0 01-.834 1.308 1.534 1.534 0 01-1.622-.292 5.034 5.034 0 01-1.8-3.654 4.158 4.158 0 01.114-1.307 1.175 1.175 0 011.916-.792 4.364 4.364 0 012.246 3.735c.012.136 0 .274 0 .41z"/>
</svg>
