<svg xmlns="http://www.w3.org/2000/svg" viewBox="0 0 19.607 19.384">
    <defs/>
    <defs>
        <style>
            .b{fill:#f4c803}
        </style>
    </defs>
    <path fill="#585b6a" d="M2.293 14.152c-.263-.131-.52-.274-.789-.4A1 1 0 01.841 12.7a3.574 3.574 0 00-.006-.606c-.04-.509.063-1.069-.56-1.36-.114-.057-.171-.32-.189-.5C.04 9.805.057 9.371.012 8.942a1.61 1.61 0 011.023-1.726c.589-.286 1.223-.48 1.84-.714 0-.377.011-.777-.011-1.177-.006-.091-.131-.206-.229-.257a1.007 1.007 0 01-.589-1.012A6.965 6.965 0 002 3.022a1.581 1.581 0 011.063-1.777 14.3 14.3 0 012.84-.834 26.863 26.863 0 0110.419.2 6.312 6.312 0 011.526.577 1.4 1.4 0 01.857 1.577c-.029.154-.034.314-.057.469-.069.463-.08.857.429 1.154a1.155 1.155 0 01.514 1.2c-.069.509-.051 1.029-.12 1.543a.711.711 0 01-.314.474c-.7.36-1.423.669-2.126 1.017a.65.65 0 00-.314.36.893.893 0 00.337 1.154 1.056 1.056 0 01.457 1.132c-.069.309.074.423.349.526a3.377 3.377 0 01.874.463 1.318 1.318 0 01.6 1.3c-.069.5-.051 1-.109 1.5a.867.867 0 01-.257.469 1.574 1.574 0 01-.606.406c-.623.177-.657.646-.617 1.143a.7.7 0 01-.331.686 8.126 8.126 0 01-3.926 1.32 37.606 37.606 0 01-3.915.3 29.392 29.392 0 01-3.612-.223 24.3 24.3 0 01-3.138-.532 4.621 4.621 0 01-1.389-.766.769.769 0 01-.223-.526c-.046-.429-.029-.863-.074-1.292a1.675 1.675 0 01.9-1.675c.074-.046.149-.091.217-.137.016-.026.028-.055.039-.078zm7.79-10.3c1.6-.16 3.212-.263 4.8-.509a12.715 12.715 0 002.583-.794c.463-.177.446-.457-.011-.674a5.883 5.883 0 00-1.326-.492 26.306 26.306 0 00-11.311.069 7.051 7.051 0 00-1.595.623c-.337.166-.326.389.006.572a5.688 5.688 0 001.109.463 26.539 26.539 0 005.744.743zm3.784 5.344l-.011-.109a1.685 1.685 0 00-.24 0 21.363 21.363 0 01-5.127.051c-1.212-.126-2.412-.366-3.606-.589a3.057 3.057 0 01-1.909-1.046.336.336 0 00-.3-.063 10.53 10.53 0 00-1.32.514c-.474.24-.48.509 0 .7a11.19 11.19 0 002.086.657 26.305 26.305 0 007.276.28c1.047-.085 2.103-.257 3.151-.4zm-9.219-3.27v-.051c.189.063.377.137.572.183a25.945 25.945 0 0011.631 0 7.579 7.579 0 001.589-.64c.1-.046.194-.331.143-.394-.114-.149-.257-.314-.537-.177a12.641 12.641 0 01-2.017.84 22.26 22.26 0 01-5.858.623c-1.837.024-3.677-.251-5.523-.384zm3.944 6.367v.131c.9-.04 1.806-.063 2.7-.126a15.818 15.818 0 004.155-.732 5.435 5.435 0 001.023-.532c.057-.034.034-.211.046-.326-.1 0-.217-.034-.3.006-.269.137-.509.326-.783.452a10.778 10.778 0 01-3.755.892c-1.029.074-2.063.154-3.092.234zm6.784 1.96l.017.086c.743-.217 1.5-.406 2.235-.669a3.235 3.235 0 00.772-.56c-.286-.194-.566-.394-.852-.583-.029-.017-.08 0-.16.006a.737.737 0 01-.457.9c-.52.28-1.04.549-1.555.817zm.874-9.5c1.189-.2 1.7-.674 1.589-1.429-.331.126-.657.269-.994.383-.68.234-.7.257-.594 1.046zm.606 10.9c1.189-.2 1.7-.674 1.589-1.429-.331.126-.657.269-.994.383-.68.229-.7.251-.594 1.046zm-1.817-2.246c1.212-.223 1.715-.68 1.577-1.429-.331.131-.657.269-.994.383-.663.223-.692.269-.583 1.046zm3.674-7.181c-.16.074-.314.154-.469.217a7.7 7.7 0 01-.52.194c-.692.229-.743.314-.594 1.04 1.086-.143 1.652-.646 1.583-1.452zm-2.829 3.041c-.366.137-.709.28-1.057.4-.629.211-.709.349-.549 1.034 1.052-.149 1.595-.612 1.606-1.435zm1.1 7.316c-.057-.029-.091-.051-.109-.046q-.437.1-.874.223c-.669.177-.76.337-.589 1.034.972-.143 1.555-.589 1.572-1.212zM7.419 10.5H6.025c-.08.886-.086.886.783.937.194.011.394 0 .612 0zm2.852-2.1v-.926H8.894c-.12.857-.114.874.709.926.211.011.423 0 .669 0zm-1.726 9.184H7.151c-.08.886-.08.892.783.937.194.011.394 0 .612 0zm.874-13.045H8.003a3.851 3.851 0 00.011.629.347.347 0 00.206.251c.389.046.789.051 1.194.074zm.583 11.825v-.938H8.626c-.08.886-.08.886.783.937.183.011.366 0 .594 0zm-3.218-3.189q.009.223 0 .446c-.034.36.12.486.469.469.309-.011.617.023.937.034v-.954H6.785zm-.726.823a5.82 5.82 0 00-.011-.714.314.314 0 00-.189-.223c-.366-.057-.732-.086-1.126-.126a7.236 7.236 0 00.011.794.3.3 0 00.211.2c.349.04.7.046 1.1.069zm2.075-5.7a3.6 3.6 0 00-.014-.672.4.4 0 00-.229-.274c-.349-.063-.7-.086-1.086-.12a7.134 7.134 0 00.011.789.306.306 0 00.211.206c.349.034.7.046 1.1.069zm-3.058 9.053c0 .291-.017.52.006.743.011.086.1.229.171.24.377.046.754.051 1.149.074a3.546 3.546 0 00-.011-.663.4.4 0 00-.229-.274c-.342-.067-.696-.084-1.085-.124zm.206-6.012a4.576 4.576 0 00-.011-.7c-.017-.1-.12-.246-.2-.257-.36-.063-.732-.086-1.092-.12-.149.88-.1.943.68 1.017zM7.27 5.361a7 7 0 00-.006-.7c-.011-.086-.109-.223-.183-.234-.371-.057-.749-.086-1.137-.126a6.832 6.832 0 00.011.777.317.317 0 00.206.211c.343.04.7.046 1.109.074zm-.72 9.83a7.109 7.109 0 00.011.789.289.289 0 00.211.2c.349.04.7.051 1.1.069a5.822 5.822 0 00-.011-.714.314.314 0 00-.189-.223c-.366-.057-.732-.086-1.126-.12zM15.1 8.15c1.406-.16 1.246-.034 1.194-1.114l-1.275.212c.025.303.053.583.082.898zm-1.731 10.089c1.149.017 1.412-.229 1.177-1.092l-1.263.223c.036.309.058.577.086.869zm-1.12-7.087c1.154 0 1.423-.257 1.166-1.1l-1.257.223c.034.314.057.583.091.874zm3.812 4.732v-.9l-1.309.229c.034.32.069.606.1.92.343-.057.64-.1.932-.149.1-.029.189-.063.274-.1zm-1.823-10.7c1.149.006 1.417-.251 1.172-1.1l-1.257.229c.028.313.056.581.085.872zm.04 7.538l-1.343.234c.034.32.069.612.109.932l1.189-.217c.016-.319.034-.599.045-.945zm.063-4.5c-.023-.3-.051-.589-.074-.892l-1.349.114.114.88zm-1.789 9.224l-1.355.114c.04.314.08.589.114.886l1.308-.11c-.027-.303-.05-.572-.067-.886zm-1.126-7.093l-1.355.114.114.886 1.309-.114a24.887 24.887 0 01-.069-.886zm2.593 4.937l-1.349.1c.04.309.074.583.114.886l1.309-.109c-.029-.3-.051-.577-.074-.88zm-1.846-9.9l1.315-.109a52.265 52.265 0 01-.074-.88l-1.343.1c.024.295.058.564.098.89zm-1.324 7.756c.04.3.074.577.114.886l1.309-.109c-.023-.3-.046-.577-.069-.886zm-.383 4.486H9.319v.966l1.234-.1c-.034-.32-.063-.583-.091-.869zm-1.492-3.441l1.234-.091a25.365 25.365 0 00-.1-.874H8.969v.966zm-.772-3.658v.977l1.229-.091c-.034-.32-.063-.606-.091-.886zm2.595 4.927v.977l1.229-.091c-.034-.32-.063-.606-.091-.886zm.617-10c-.029-.32-.057-.606-.086-.88h-1.142v.966zm.869 2.943a5.233 5.233 0 00-.074-.692.342.342 0 00-.234-.217c-.309-.029-.617-.011-.92-.011v1.006zM4.07 3.894c-.114 1.006.137 1.269 1.1 1.149v-.892c-.331-.08-.629-.16-.937-.234a1.543 1.543 0 00-.162-.024zm.6 10.882c-.063 1.074-.149 1.029 1.1 1.194v-.909c-.051-.023-.1-.04-.149-.057-.3-.074-.606-.143-.949-.229zm-1.817-2.25c-.074 1.046.1 1.229 1.092 1.177.137-.846.114-.88-.657-1.074-.138-.031-.275-.06-.435-.103zm1.435 5.59c.091-1.109.177-.909-1.092-1.137-.077 1.014.074 1.174 1.092 1.14zm-2.212-8.27c-.086 1.057.057 1.212 1.086 1.183.154-.823.114-.892-.64-1.08-.143-.032-.28-.06-.446-.1zm3.961-1.817v-.92a2.206 2.206 0 00-.223-.08c-.291-.069-.583-.131-.874-.2-.137.977.006 1.132 1.1 1.2zM2.631 14.99c-.554.269-.646.457-.343.652a11.112 11.112 0 001.143.554c-.686-.577-.686-.577-.8-1.206zm-.577-1.846c.1-.857.069-.932-.429-1.074-.12.789-.069.914.429 1.074zm1.663-6.8c-.171.783-.063 1.04.451 1.034-.063-.383.2-.9-.451-1.034zm-1.32 11.208c.109-.84.069-.932-.423-1.08-.127.778-.075.921.422 1.087zm.846-13.065c.166-.7.086-.926-.406-1.063-.118.789-.069.921.405 1.069zm-1.972 5.978c.114-.817.074-.926-.411-1.086-.141.747-.081.915.41 1.093zm2.595 4.932c.12-.8.08-.892-.457-.9.029.349-.154.789.457.9z"/>
    <path d="M10.083 3.847a26.546 26.546 0 01-5.744-.749 5.687 5.687 0 01-1.109-.463c-.331-.177-.343-.4-.006-.572a7.157 7.157 0 011.595-.623 26.3 26.3 0 0111.31-.069 5.636 5.636 0 011.326.5c.457.217.474.5.011.674a12.716 12.716 0 01-2.583.794c-1.588.251-3.2.348-4.8.508zM13.866 9.192c-1.052.137-2.1.314-3.149.406a26.3 26.3 0 01-7.276-.28 11.19 11.19 0 01-2.086-.657c-.48-.194-.474-.463 0-.7a10.526 10.526 0 011.32-.514.336.336 0 01.3.063 3.057 3.057 0 001.909 1.046c1.2.223 2.4.463 3.606.589a21.976 21.976 0 005.127-.051 1.681 1.681 0 01.24 0zM4.648 5.922c1.84.143 3.686.411 5.521.389a22.476 22.476 0 005.858-.623 12.646 12.646 0 002.017-.84c.28-.137.423.029.537.177.051.063-.046.349-.143.394a7.9 7.9 0 01-1.589.64 25.945 25.945 0 01-11.631 0c-.194-.046-.377-.12-.572-.183zM8.591 12.289c1.029-.08 2.057-.16 3.092-.234a10.778 10.778 0 003.755-.892c.274-.126.514-.314.783-.451.08-.04.2-.006.3-.006-.011.114.011.292-.046.326a5.616 5.616 0 01-1.023.532 16.013 16.013 0 01-4.155.732c-.9.063-1.806.086-2.7.126zM15.375 14.252l1.549-.812a.737.737 0 00.457-.9c.08-.006.137-.023.16-.006.286.189.572.389.852.583a3.53 3.53 0 01-.772.56c-.732.263-1.486.451-2.235.669zM16.244 4.745c-.1-.789-.08-.817.594-1.046.337-.114.663-.257.994-.383.121.76-.399 1.229-1.588 1.429zM16.85 15.644c-.1-.789-.08-.817.594-1.046.337-.114.663-.257.994-.383.121.754-.399 1.229-1.588 1.429zM15.038 13.398c-.109-.777-.08-.823.583-1.046.337-.114.663-.257.994-.383.138.749-.365 1.206-1.577 1.429zM18.713 6.231c.069.806-.5 1.309-1.589 1.446-.149-.72-.1-.806.594-1.034.177-.057.349-.12.52-.194s.31-.144.475-.218zM15.885 9.271c-.011.817-.554 1.286-1.606 1.435-.16-.686-.08-.817.549-1.034.348-.115.691-.258 1.057-.401zM16.981 16.587c-.017.623-.6 1.063-1.577 1.206-.166-.692-.08-.852.589-1.034.292-.08.583-.149.874-.223.029 0 .052.029.114.051zM7.42 10.5v.937c-.217 0-.417.011-.612 0-.863-.046-.863-.046-.777-.937z" class="b"/>
    <path d="M10.272 8.403c-.246 0-.457.011-.669 0-.817-.046-.829-.063-.709-.926h1.377zM8.545 17.587v.937c-.217 0-.417.006-.612 0-.863-.046-.863-.046-.783-.937zM9.421 4.539v.949c-.411-.023-.806-.029-1.194-.074a.347.347 0 01-.206-.251 3.849 3.849 0 01-.011-.629zM10.003 16.364c-.223 0-.411.006-.594 0-.863-.046-.863-.046-.783-.937h1.377zM6.786 13.175h1.4v.954c-.314-.011-.629-.051-.937-.034-.349.011-.509-.114-.469-.469a3.973 3.973 0 00.006-.451zM6.06 13.998c-.4-.023-.754-.029-1.1-.069a.31.31 0 01-.211-.2 7.216 7.216 0 01-.011-.794c.394.04.766.069 1.126.126a.291.291 0 01.189.223 5.82 5.82 0 01.007.714zM8.134 8.294c-.4-.023-.754-.029-1.109-.069a.317.317 0 01-.211-.206 7.135 7.135 0 01-.011-.789c.383.04.737.057 1.086.12a.376.376 0 01.229.274 3.121 3.121 0 01.016.67zM5.077 17.347c.389.04.743.057 1.092.126a.4.4 0 01.229.274 4.113 4.113 0 01.011.663c-.394-.023-.777-.034-1.149-.074-.069-.006-.16-.149-.171-.24a6.311 6.311 0 01-.012-.749zM5.282 11.334l-.623-.057c-.783-.074-.823-.137-.68-1.017.36.034.732.057 1.092.12.08.011.189.16.2.257a4.559 4.559 0 01.011.697zM7.271 5.356c-.406-.023-.766-.034-1.114-.074a.317.317 0 01-.206-.211 6.833 6.833 0 01-.011-.777c.389.04.766.063 1.137.126a.316.316 0 01.183.234 5.5 5.5 0 01.011.702zM6.551 15.181c.394.04.766.069 1.126.126a.325.325 0 01.189.223 5.823 5.823 0 01.011.714c-.4-.023-.754-.029-1.1-.069a.31.31 0 01-.211-.2 7.233 7.233 0 01-.015-.794zM15.101 8.145l-.086-.9 1.28-.217c.057 1.077.22.957-1.194 1.117zM13.37 18.241c-.029-.291-.057-.56-.086-.874l1.263-.223c.237.866-.029 1.117-1.177 1.097zM12.249 11.154a99.29 99.29 0 00-.091-.874l1.257-.223c.258.837-.011 1.097-1.166 1.097zM16.058 15.884a2.116 2.116 0 01-.269.091c-.3.051-.589.1-.932.149-.034-.314-.069-.6-.1-.92l1.309-.229v.909zM14.238 5.182c-.029-.291-.057-.56-.086-.874l1.257-.229c.243.855-.022 1.112-1.171 1.103zM14.278 12.723c-.017.349-.029.629-.046.949l-1.189.211c-.034-.32-.069-.606-.109-.932zM14.341 8.228l-1.309.1-.114-.88 1.349-.114c.028.303.051.588.074.894zM12.553 17.45c.023.314.046.577.069.886l-1.309.114c-.04-.3-.074-.572-.114-.886zM11.421 10.357c.023.309.046.572.074.886l-1.309.114-.114-.886zM14.01 15.295c.029.3.051.577.074.88l-1.309.109c-.04-.3-.074-.577-.114-.886zM12.166 5.391c-.04-.326-.069-.589-.1-.886l1.343-.1c.029.3.051.577.074.88zM10.849 13.143l1.349-.1.069.886-1.309.109a44.777 44.777 0 00-.109-.895zM10.466 17.633l.091.869-1.234.1v-.969zM8.974 14.192v-.966h1.143c.029.269.057.549.1.874zM8.197 10.534h1.137c.029.28.057.566.091.886l-1.229.091zM10.797 15.461h1.137c.029.28.057.566.091.886l-1.229.091zM11.415 5.459l-1.223.086v-.966h1.137c.023.269.052.554.086.88zM12.284 8.397l-1.229.086V7.477c.3 0 .617-.017.92.011a.342.342 0 01.234.217 6.433 6.433 0 01.075.692zM4.071 3.893a1.647 1.647 0 01.166.023c.3.074.606.154.937.234v.892c-.966.12-1.217-.143-1.103-1.149zM4.674 14.775c.343.08.646.154.949.229a1.146 1.146 0 01.149.057v.909c-1.25-.161-1.165-.121-1.098-1.195zM2.854 12.529c.16.04.3.069.44.1.772.194.794.229.657 1.074-1 .055-1.172-.128-1.097-1.174zM4.288 18.118c-1.017.034-1.172-.131-1.092-1.137 1.269.234 1.183.034 1.092 1.137zM2.076 9.849c.166.04.3.069.44.109.754.189.794.251.64 1.08-1.023.023-1.166-.137-1.08-1.189zM6.036 8.032c-1.092-.063-1.234-.217-1.1-1.195.291.069.583.131.874.2a2.2 2.2 0 01.223.08zM2.631 14.987c.114.634.114.634.8 1.2a11.719 11.719 0 01-1.143-.554c-.309-.189-.212-.372.343-.646zM2.053 13.146c-.5-.16-.549-.286-.429-1.074.499.143.532.217.429 1.074zM3.722 6.351c.652.137.389.652.452 1.034-.515.006-.623-.251-.452-1.034zM2.396 17.558c-.5-.166-.549-.309-.423-1.08.497.149.531.24.423 1.08zM3.244 4.493c-.474-.149-.526-.274-.406-1.063.49.131.57.354.406 1.063zM1.27 10.472c-.492-.177-.549-.343-.411-1.086.486.16.526.269.411 1.086zM3.865 15.401c-.606-.114-.423-.549-.457-.9.531.011.577.1.457.9z" class="b"/>
</svg>
