<svg viewBox="0 0 55 45.286" xmlns="http://www.w3.org/2000/svg" xmlns:xlink="http://www.w3.org/1999/xlink"><linearGradient id="a" gradientUnits="objectBoundingBox" x2="1" y1=".5" y2=".5"><stop offset="0"/><stop offset="1"/></linearGradient><linearGradient id="b" x1="0" xlink:href="#a" y1=".5" y2=".5"/><linearGradient id="c" x1="-.146" x2=".953" xlink:href="#a" y1=".4" y2=".4"/><path d="m55 20.48c0 12.963-15.093 24.665-27.988 24.8-16.149.177-26.99-6.51-26.99-17.698s15.613-25.43 26.804-25.43c13.577 0 27.676 10.6 28.174 18.328z"/><path d="m49.616 20.105c-.612 15.578-12.947 24.4-25.7 24.4s-23.129-7.861-23.129-18.363 12.549-24.786 25.291-23.99c10.233.639 23.96 7.463 23.538 17.953z" fill="#fff"/><path d="m48.205 19.308c-.593 14.444-12.3 22.636-24.432 22.636s-21.972-7.298-21.972-17.032 11.928-22.988 24.04-22.25c9.72.6 22.762 6.922 22.364 16.646z" fill="#82d9e8"/><path d="m18.252 4.223s-24.226 12.252-14.035 28.588 30.96 6.634 30.96 6.634z" fill="#824b0f"/><circle cx="25.618" cy="19.979" fill="#47a8ad" r="16.623"/><path d="m32.882 34.949s-11.531 6.233-20.287-4.674c0 0-7.683-7.975-1.168-19.312a22.534 22.534 0 0 1 10.038-7.607z" fill="#5b330a"/><circle cx="13.894" cy="13.894" fill="url(#b)" r="13.894" transform="translate(11.69 5.16)"/><path d="m0 27.168s5.111-25.267 31.49-23.787c17.114.962 22.18 4.4 22.18 4.4s-16.31-10.412-33.682-7.148c-19.03 3.574-19.988 26.535-19.988 26.535z"/><path d="m132.48 9.889c8.587 3.442 11.036 6.1 11.036 6.1a56.02 56.02 0 0 0 -10.071-7.729z" fill="url(#c)" transform="translate(-91.989 -5.721)"/><circle cx="39.432" cy="16.735" fill="#fff" r="4.933"/></svg>